<?xml version="1.0" encoding="utf-8"?><svg viewBox="0 0 350 428" xmlns="http://www.w3.org/2000/svg" xmlns:xlink="http://www.w3.org/1999/xlink"><style>:root>svg{display:none}:root>svg:target{display:block}</style><svg fill="none" viewBox="0 0 9 14" id="Combined-Shape" xmlns="http://www.w3.org/2000/svg"><path fill-rule="evenodd" clip-rule="evenodd" d="M4.158.22c2.297 0 4.159 1.833 4.159 4.095 0 .518-.164 1.144-.492 1.877l-.109.235c-.133.278-.289.57-.467.878l-.157.267-.083.136-.175.278-.091.142-.19.288-.202.296-.105.15-.218.307-.113.155-.234.317-.245.325-.127.164-.26.335-.273.342a.792.792 0 0 1-1.192.049l-.043-.049-.137-.172-.267-.338a40.343 40.343 0 0 1-.256-.331l-.245-.325-.234-.317a31.172 31.172 0 0 1-.113-.155l-.218-.307-.105-.15-.202-.296-.19-.288-.091-.142-.175-.278a18.391 18.391 0 0 1-.083-.136l-.158-.267C.89 6.998.734 6.705.6 6.427l-.109-.235C.164 5.459 0 4.833 0 4.315 0 2.053 1.862.219 4.158.219Zm0 .593C2.188.813.594 2.383.594 4.315c0 .545.23 1.267.69 2.154l.126.235.136.243.072.124.152.254c.078.128.16.26.247.394l.178.273.189.28.098.142.204.29.215.298.112.151.23.309.242.316.125.16.257.326.137.171a.198.198 0 0 0 .308 0l.263-.33.253-.323.241-.316.231-.309.22-.301.107-.148.205-.291.194-.283.093-.14.178-.272.168-.265.157-.258c.051-.085.1-.168.147-.25l.136-.243c.546-.996.817-1.797.817-2.391C7.722 2.383 6.13.813 4.158.813Zm0 2.052a1.512 1.512 0 1 1 0 3.025 1.512 1.512 0 0 1 0-3.025Zm0 .594a.918.918 0 1 0 0 1.837.918.918 0 0 0 0-1.837Zm.095 8.776c.71 0 1.372-.198 1.799-.539.305-.243.482-.553.482-.892a.297.297 0 0 0-.591-.04l-.003.04c0 .14-.084.289-.258.428-.314.25-.845.409-1.43.409-.579 0-1.105-.156-1.42-.403-.16-.124-.246-.258-.264-.386l-.003-.048a.297.297 0 1 0-.594 0c0 .344.182.657.495.902.428.335 1.083.529 1.787.529Zm3.023.285c-.709.534-1.82.85-3.023.85-1.19 0-2.292-.31-3.002-.835-.504-.373-.792-.842-.792-1.353a.297.297 0 0 1 .594 0c0 .302.187.606.551.876.6.443 1.578.718 2.649.718 1.081 0 2.068-.28 2.665-.73.354-.267.535-.567.535-.864a.297.297 0 0 1 .594 0c0 .504-.28.967-.771 1.338Z" fill="#fff"/></svg><svg fill="none" viewBox="0 0 9 14" id="Shape" xmlns="http://www.w3.org/2000/svg"><path fill-rule="evenodd" clip-rule="evenodd" d="M4.158.22c2.297 0 4.159 1.833 4.159 4.095 0 .518-.164 1.144-.492 1.877l-.109.235c-.133.278-.289.57-.467.878l-.157.267-.083.136-.175.278-.091.142-.19.288-.202.296-.105.15-.218.307-.066.09-.047.065-.234.317-.245.325-.127.164-.26.335-.273.342a.79.79 0 0 1-1.192.049l-.043-.049-.137-.172-.267-.338a43.073 43.073 0 0 1-.256-.331l-.245-.325-.234-.317a32.622 32.622 0 0 1-.113-.155l-.218-.307-.105-.15-.202-.296-.19-.288-.091-.142-.175-.277a22.139 22.139 0 0 1-.083-.137l-.158-.267C.89 6.998.734 6.705.6 6.427l-.109-.235C.164 5.459 0 4.833 0 4.315 0 2.053 1.862.219 4.158.219Zm0 .593C2.188.813.594 2.383.594 4.315c0 .545.23 1.267.69 2.154l.126.235.136.243.072.124.152.254c.078.128.16.26.247.394l.178.273.189.28.05.072.048.07.204.29.215.298.112.151.23.309.242.315.125.161.257.326.137.17a.198.198 0 0 0 .308 0l.263-.329.253-.323.241-.316.231-.309.22-.301.107-.148.205-.291.194-.283.093-.14.178-.272.168-.265.157-.258c.051-.085.1-.168.147-.25l.136-.243c.546-.996.817-1.797.817-2.391C7.722 2.383 6.13.813 4.158.813Zm0 2.052a1.512 1.512 0 1 1 0 3.025 1.512 1.512 0 0 1 0-3.025Zm0 .594a.918.918 0 1 0 0 1.837.918.918 0 0 0 0-1.837Zm.095 8.776c.71 0 1.372-.198 1.799-.539.305-.243.482-.553.482-.892a.297.297 0 0 0-.591-.04l-.003.04c0 .14-.084.289-.258.428-.314.25-.845.409-1.43.409-.579 0-1.105-.156-1.42-.403-.16-.124-.246-.258-.264-.386l-.003-.048a.297.297 0 0 0-.594 0c0 .344.182.657.495.902.428.335 1.083.529 1.787.529Zm3.023.285c-.709.534-1.82.85-3.023.85-1.19 0-2.292-.31-3.002-.835-.504-.373-.792-.842-.792-1.353a.297.297 0 1 1 .594 0c0 .302.187.606.551.876.6.443 1.578.717 2.649.717 1.081 0 2.068-.28 2.665-.73.354-.266.535-.566.535-.863a.297.297 0 1 1 .594 0c0 .504-.28.967-.771 1.338Z" fill="#fff"/></svg><svg viewBox="0 0 25 25" id="arrow" xmlns="http://www.w3.org/2000/svg"><path d="m9.245 3.02 8.776 8.75a.92.92 0 0 1 .221.34c.044.121.066.251.065.39 0 .139-.021.27-.064.39a.902.902 0 0 1-.222.34l-8.776 8.775a1.237 1.237 0 0 1-.912.365c-.364 0-.677-.13-.937-.39a1.25 1.25 0 0 1-.391-.912c0-.347.13-.651.39-.912l7.657-7.656-7.656-7.656a1.221 1.221 0 0 1-.365-.9c0-.355.13-.663.39-.923.261-.26.565-.39.912-.39.347 0 .651.13.912.39Z"/></svg><svg viewBox="0 0 48 48" id="arrow-circle-left" xmlns="http://www.w3.org/2000/svg"><path d="M24 42.75A18.75 18.75 0 1 0 5.25 24 18.787 18.787 0 0 0 24 42.75Zm0-36A17.25 17.25 0 1 1 6.75 24 17.269 17.269 0 0 1 24 6.75ZM15.75 24a.75.75 0 0 1 .75-.75h13.181L24.6 18.169a.787.787 0 0 1 0-1.069.732.732 0 0 1 .544-.206.713.713 0 0 1 .525.206l6.356 6.375a.733.733 0 0 1 0 1.05L25.669 30.9a.756.756 0 1 1-1.069-1.069l5.081-5.081H16.5a.75.75 0 0 1-.75-.75Z"/></svg><svg viewBox="0 0 48 48" id="arrow-circle-right" xmlns="http://www.w3.org/2000/svg"><path d="M24 5.25A18.75 18.75 0 1 0 42.75 24 18.787 18.787 0 0 0 24 5.25Zm0 36A17.25 17.25 0 1 1 41.25 24 17.269 17.269 0 0 1 24 41.25ZM32.25 24a.75.75 0 0 1-.75.75H18.319l5.081 5.081a.787.787 0 0 1 0 1.069.732.732 0 0 1-.544.206.713.713 0 0 1-.525-.206l-6.356-6.375a.733.733 0 0 1 0-1.05l6.356-6.375a.756.756 0 1 1 1.069 1.069l-5.081 5.081H31.5a.75.75 0 0 1 .75.75Z"/></svg><svg viewBox="0 0 72 72" id="arrowLeft" xmlns="http://www.w3.org/2000/svg"><circle cx="36" cy="36" r="36" fill="#fff" fill-opacity=".8"/><path d="M36 5a31 31 0 1 0 31 31A31.062 31.062 0 0 0 36 5Zm0 59.52A28.52 28.52 0 1 1 64.52 36 28.55 28.55 0 0 1 36 64.52ZM49.64 36a1.24 1.24 0 0 1-1.24 1.24H26.607l8.401 8.401a1.302 1.302 0 0 1 0 1.767 1.208 1.208 0 0 1-.899.341 1.178 1.178 0 0 1-.868-.341l-10.509-10.54a1.21 1.21 0 0 1 0-1.736l10.509-10.54a1.25 1.25 0 1 1 1.767 1.767l-8.401 8.401H48.4A1.24 1.24 0 0 1 49.64 36Z"/></svg><svg viewBox="0 0 72 72" id="arrowRight" xmlns="http://www.w3.org/2000/svg"><circle cx="36" cy="36" r="36" transform="rotate(-180 36 36)" fill="#fff" fill-opacity=".8"/><path d="M36 67A31 31 0 1 0 5 36a31.062 31.062 0 0 0 31 31Zm0-59.52A28.52 28.52 0 1 1 7.48 36 28.55 28.55 0 0 1 36 7.48ZM22.36 36a1.24 1.24 0 0 1 1.24-1.24h21.793l-8.401-8.401a1.302 1.302 0 0 1 0-1.767 1.209 1.209 0 0 1 .899-.341 1.178 1.178 0 0 1 .868.341l10.509 10.54a1.21 1.21 0 0 1 0 1.736l-10.509 10.54a1.25 1.25 0 1 1-1.767-1.767l8.401-8.401H23.6A1.24 1.24 0 0 1 22.36 36Z"/></svg><svg viewBox="0 0 43 43" id="boxes" xmlns="http://www.w3.org/2000/svg"><g clip-path="url(#afa)"><path d="M3.708 43h2.006c.371 0 .672-.3.672-.672V40.97h30.229v1.358c0 .372.3.672.672.672h2.015c.372 0 .672-.3.672-.672V1.68c0-.926-.753-1.68-1.68-1.68-.926 0-1.68.754-1.68 1.68v10.416H34.6V2.693c0-.371-.3-.672-.671-.672H23.18a.672.672 0 0 0-.672.672v9.403h-2.017V2.693c0-.371-.3-.672-.671-.672H9.073a.672.672 0 0 0-.672.672v9.403H6.386V1.68C6.386.754 5.633 0 4.706 0c-.926 0-1.68.754-1.68 1.68l.01 40.648c0 .372.3.672.672.672Zm34.25-41.32a.337.337 0 0 1 .672 0v39.976h-.672V1.68ZM27.883 3.365h1.345v.677h-1.345v-.677Zm-4.029 0h2.685v1.349c0 .37.3.672.672.672h2.689a.672.672 0 0 0 .672-.672v-1.35h2.686v8.732h-9.404V3.365Zm-10.08 0h1.344v.677h-1.343v-.677Zm-4.028 0h2.685v1.349c0 .37.3.672.672.672h2.687a.672.672 0 0 0 .672-.672v-1.35h2.688v8.732H9.745V3.365ZM6.385 13.44H36.616v.671H6.385v-.671Zm0 2.015h30.23v9.387h-2.013v-7.384c0-.37-.3-.672-.672-.672H9.07a.672.672 0 0 0-.671.672v7.385H6.386v-9.388Zm13.436 4.69h3.359a.672.672 0 0 0 .672-.671V18.13h9.406v6.713H9.742V18.13h9.407v1.344c0 .37.3.671.672.671Zm.671-1.343v-.672h2.016v.672h-2.016ZM6.386 26.186h30.229v.674H6.385v-.674Zm0 2.017h30.229v9.406h-2.012v-8.055c0-.372-.3-.672-.672-.672h-9.407c-.372 0-.672.3-.672.672v8.055H21.84v-6.038c0-.372-.3-.672-.672-.672H16.47l-.007-.002-.006.002H13.78l-.006-.002-.007.002H9.073c-.371 0-.672.3-.672.672v6.038H6.386v-9.406Zm21.497 4.043h2.689c.371 0 .672-.3.672-.672v-1.349h2.015v7.384h-8.063v-7.384h2.015v1.35c0 .37.3.671.672.671Zm.672-1.344v-.677H29.9v.677h-1.345Zm-14.781 3.36h2.688c.372 0 .672-.3.672-.672v-1.348h3.363v5.367H9.745v-5.367h3.357v1.348c0 .371.3.672.672.672Zm.672-1.344v-.676h1.345v.676h-1.345Zm-8.06 6.035h30.229v.673H6.385v-.673Zm-1.68-37.61c.185 0 .336.151.336.337v39.976H4.38L4.37 1.68c0-.186.151-.336.336-.336Z"/></g><defs><clipPath id="afa"><rect fill="#fff"/></clipPath></defs></svg><svg viewBox="0 0 48 51" id="calculate" xmlns="http://www.w3.org/2000/svg"><path fill="#fff" d="M13.451 17.304a.89.89 0 0 0-.634.267.918.918 0 0 0-.263.643v1.822h-1.793a.89.89 0 0 0-.634.267.918.918 0 0 0 0 1.288.89.89 0 0 0 .634.266h2.69a.89.89 0 0 0 .634-.266.918.918 0 0 0 .263-.644v-2.733a.918.918 0 0 0-.263-.643.89.89 0 0 0-.634-.267Zm0 6.375H9.864a.89.89 0 0 0-.634.267.918.918 0 0 0-.262.643v3.643c0 .242.094.474.262.644a.89.89 0 0 0 .634.267h3.587a.89.89 0 0 0 .634-.267.918.918 0 0 0 .263-.644V24.59a.918.918 0 0 0-.263-.643.89.89 0 0 0-.634-.267Zm-.896 3.643H10.76V25.5h1.794v1.822Zm.896 3.642H9.864a.89.89 0 0 0-.634.267.918.918 0 0 0-.262.644v3.643c0 .242.094.473.262.644a.89.89 0 0 0 .634.267h3.587a.89.89 0 0 0 .634-.267.918.918 0 0 0 .263-.644v-3.643a.918.918 0 0 0-.263-.644.89.89 0 0 0-.634-.267Zm-.896 3.643H10.76v-1.821h1.794v1.821Zm.896 3.643H9.864a.89.89 0 0 0-.634.267.918.918 0 0 0-.262.644v3.643a.92.92 0 0 0 .262.644.89.89 0 0 0 .634.266h3.587a.89.89 0 0 0 .634-.266.918.918 0 0 0 .263-.644V39.16a.918.918 0 0 0-.263-.644.89.89 0 0 0-.634-.267Zm-.896 3.643H10.76V40.07h1.794v1.822Zm13.449-23.679h-8.07a.89.89 0 0 0-.634.267.918.918 0 0 0 0 1.288.89.89 0 0 0 .634.267h8.07a.89.89 0 0 0 .634-.267.918.918 0 0 0 0-1.288.89.89 0 0 0-.634-.267Zm0 7.286h-8.07a.89.89 0 0 0-.634.266.918.918 0 0 0 0 1.288.89.89 0 0 0 .634.267h8.07a.89.89 0 0 0 .634-.267.918.918 0 0 0 0-1.288.89.89 0 0 0-.634-.266Zm-1.794 7.286h-6.276a.89.89 0 0 0-.634.266.918.918 0 0 0 0 1.288.89.89 0 0 0 .634.267h6.277a.89.89 0 0 0 .634-.267.918.918 0 0 0 0-1.288.89.89 0 0 0-.634-.266Zm0 7.285h-6.276a.89.89 0 0 0-.634.267.918.918 0 0 0 0 1.288.89.89 0 0 0 .634.267h6.277a.89.89 0 0 0 .634-.267.918.918 0 0 0 0-1.288.89.89 0 0 0-.634-.267Z"/><path fill="#fff" d="M47.196 34.143a5.585 5.585 0 0 0-1.39-2.442 5.461 5.461 0 0 0-2.39-1.435 5.409 5.409 0 0 0 2.336-2.65l.72-1.739a.924.924 0 0 0 .003-.697.904.904 0 0 0-.483-.495l-1.712-.731a5.304 5.304 0 0 0-4.118-.022 5.422 5.422 0 0 0-2.926 2.942l-.054.13a8.124 8.124 0 0 0-.998-1.237.892.892 0 0 0-.316-.207V9.107a3.676 3.676 0 0 0-1.052-2.575 3.563 3.563 0 0 0-2.535-1.068H22.194a.668.668 0 0 1-.476-.2.69.69 0 0 1-.197-.483V3.704a3.804 3.804 0 0 0-.29-1.443 3.757 3.757 0 0 0-.814-1.219A3.54 3.54 0 0 0 19.245.26a3.496 3.496 0 0 0-1.38-.26 3.579 3.579 0 0 0-2.486 1.097 3.69 3.69 0 0 0-1.032 2.546V4.78a.69.69 0 0 1-.197.483.668.668 0 0 1-.475.2H3.587a3.563 3.563 0 0 0-2.535 1.068A3.676 3.676 0 0 0 0 9.107v38.25c.001.966.38 1.892 1.052 2.575A3.563 3.563 0 0 0 3.587 51H32.28c.279 0 .556-.034.827-.1.74.16 1.506.127 2.23-.092a4.518 4.518 0 0 0 1.916-1.163l.088-.089.088.09c.422.43.924.772 1.477 1.004a4.464 4.464 0 0 0 1.744.35 4.523 4.523 0 0 0 2.243-.604 4.611 4.611 0 0 0 1.663-1.642l.85-1.437a17.198 17.198 0 0 0 2.213-6.403 17.28 17.28 0 0 0-.424-6.771Zm-8.307-6.563a3.64 3.64 0 0 1 .783-1.178 3.583 3.583 0 0 1 1.168-.783 3.54 3.54 0 0 1 2.745.014l.886.378-.373.9a3.646 3.646 0 0 1-.783 1.177 3.583 3.583 0 0 1-1.168.784 3.54 3.54 0 0 1-2.745-.015l-.886-.378.373-.9Zm-.182 2.956c.188.08.38.15.577.207-.267.15-.521.323-.76.517a8.266 8.266 0 0 0-.067-.83l.25.106Zm-1.98 1.247-.103-.104a5.552 5.552 0 0 0-.756-.64v-2.737a6.365 6.365 0 0 1 .858 3.48ZM34.074 9.107v21.108a5.42 5.42 0 0 0-1.794-.14V10.018a.918.918 0 0 0-.262-.644.89.89 0 0 0-.634-.267H26.9a3.67 3.67 0 0 0-.482-1.821h5.862c.476 0 .932.192 1.268.534.336.341.525.804.526 1.287Zm-5.709 36.429H5.38V10.928h4.07a3.616 3.616 0 0 0 1.312 1.333c.545.32 1.163.488 1.792.489h10.76c.63 0 1.248-.17 1.793-.489.545-.32.997-.78 1.312-1.333h4.069V30.56a5.483 5.483 0 0 0-1.891 1.453 5.587 5.587 0 0 0-1.108 2.13 17.28 17.28 0 0 0 .877 11.393ZM16.141 4.78V3.643c.002-.477.187-.933.515-1.274a1.79 1.79 0 0 1 1.243-.548 1.717 1.717 0 0 1 1.262.52 1.922 1.922 0 0 1 .566 1.363v1.077c.001.664.261 1.3.724 1.77a2.45 2.45 0 0 0 1.742.735h1.121c.476 0 .932.191 1.268.533a1.84 1.84 0 0 1 0 2.576 1.78 1.78 0 0 1-1.268.533h-10.76a1.78 1.78 0 0 1-1.268-.533 1.836 1.836 0 0 1-.525-1.288c0-.483.188-.946.525-1.288a1.78 1.78 0 0 1 1.268-.533h1.12a2.45 2.45 0 0 0 1.744-.735 2.53 2.53 0 0 0 .723-1.77ZM1.793 47.357V9.107a1.84 1.84 0 0 1 .526-1.287 1.782 1.782 0 0 1 1.268-.534H9.45a3.664 3.664 0 0 0-.483 1.821H4.484a.89.89 0 0 0-.635.267.918.918 0 0 0-.262.644v36.428c0 .242.094.474.262.644a.89.89 0 0 0 .635.267h24.818l.825 1.397c.088.147.184.288.287.425H3.587a1.784 1.784 0 0 1-1.268-.535 1.838 1.838 0 0 1-.526-1.287Zm42.075-.978-.849 1.438a2.796 2.796 0 0 1-1.008.996 2.742 2.742 0 0 1-1.36.365 2.705 2.705 0 0 1-1.057-.211 2.74 2.74 0 0 1-.896-.61l-.721-.733a.896.896 0 0 0-.635-.267.886.886 0 0 0-.634.267l-.722.733a2.705 2.705 0 0 1-1.953.822 2.742 2.742 0 0 1-1.36-.366 2.796 2.796 0 0 1-1.008-.996l-.85-1.438a15.346 15.346 0 0 1-1.975-5.713 15.418 15.418 0 0 1 .38-6.044 3.73 3.73 0 0 1 .954-1.664A3.657 3.657 0 0 1 31.818 32a3.616 3.616 0 0 1 1.896.003c.621.17 1.187.502 1.642.964l1.352 1.373a.897.897 0 0 0 .634.267.885.885 0 0 0 .635-.267l1.352-1.373a3.659 3.659 0 0 1 1.641-.964A3.619 3.619 0 0 1 42.866 32a3.658 3.658 0 0 1 1.645.958 3.74 3.74 0 0 1 .954 1.664c.525 1.968.654 4.024.38 6.044a15.348 15.348 0 0 1-1.977 5.713Z"/><path fill="#fff" d="M43.233 41.926a.883.883 0 0 0-.945.32.916.916 0 0 0-.157.317 17.43 17.43 0 0 1-.258.864.925.925 0 0 0 .26.981.893.893 0 0 0 .654.222.886.886 0 0 0 .616-.316.913.913 0 0 0 .172-.311c.103-.316.2-.638.286-.958a.924.924 0 0 0-.315-.96.89.89 0 0 0-.313-.16Zm.387-5.497a.89.89 0 0 0-.634.267.918.918 0 0 0-.263.643v.763c0 .624-.034 1.248-.102 1.868a.924.924 0 0 0 .186.676.9.9 0 0 0 .604.341.884.884 0 0 0 .664-.197.908.908 0 0 0 .328-.618c.076-.687.114-1.378.114-2.07v-.763a.918.918 0 0 0-.263-.643.89.89 0 0 0-.634-.267ZM12.816 14.838l-2.953 2.999-.263-.267a.894.894 0 0 0-.634-.267.884.884 0 0 0-.634.267.912.912 0 0 0-.263.644.923.923 0 0 0 .263.644l.897.91a.896.896 0 0 0 .634.268.884.884 0 0 0 .634-.267l3.587-3.643a.918.918 0 0 0 0-1.288.89.89 0 0 0-1.268 0Z"/></svg><svg viewBox="0 0 47 47" id="cash-on-delivery" xmlns="http://www.w3.org/2000/svg"><path d="M3.86 30.515v13.327a.702.702 0 0 0 .7.702h4.206a2.106 2.106 0 0 0 2.075-1.782l6.697 3.088a9.064 9.064 0 0 0 9.785-1.565l8.925-8.082c1.497-1.267.381-3.844-1.525-3.68v-7.62a2.107 2.107 0 0 0-2.105-2.104c-2.535.004-8.034-.003-10.521 0h-6.313a2.107 2.107 0 0 0-2.104 2.104v6.336c-.018-.042-2.808-.016-2.936-.023a2.105 2.105 0 0 0-1.978-1.403H4.56a.703.703 0 0 0-.702.702Zm21.744-6.313v2.88l-1.007-.689c-.584-.42-1.238.375-1.799.689v-2.88h2.806Zm-9.82 0h5.612v4.208c.025.207.093.415.27.54a.718.718 0 0 0 .827.04l1.709-1.168 1.708 1.168a.704.704 0 0 0 .91-.11c.123-.12.16-.305.187-.47v-4.208h5.612a.703.703 0 0 1 .701.701v8.117l-10.322 5.034c1.247-1.99-.34-4.8-2.696-4.733h-4.697c-.129-.372-.273-.946-.523-1.25v-7.168a.703.703 0 0 1 .702-.701Zm-1.73 8.898c.264.611.286 1.63 1.044 1.623h5.206a1.753 1.753 0 1 1 0 3.507h-3.117a.7.7 0 0 0-.271 1.352.702.702 0 0 0 .27.051H22.8a.704.704 0 0 0 .307-.07l11.406-5.564a.672.672 0 0 1 .9.235.688.688 0 0 1-.108.931l-8.923 8.08a7.658 7.658 0 0 1-8.262 1.328l-7.246-3.34V32.62h2.517a.699.699 0 0 1 .665.48Zm-8.792-1.884h3.504a.706.706 0 0 1 .705.705v10.514a.706.706 0 0 1-.705.705H5.262V31.216Z"/><path d="M27.007 33.32h2.104c.917-.003.918-1.398 0-1.402h-2.104c-.916.004-.917 1.399 0 1.403ZM43.14 15.784V5.262a.702.702 0 0 0-.7-.701c-.497.042-4.53-.118-4.902.126L31.467 1.28a7.036 7.036 0 0 0-8.357 1.052l-3.231 3.13-5.195-3.214L12.295.77a.705.705 0 0 0-.97.235L7.878 6.73 6.415 9.157a.702.702 0 0 0 .226.955l14.46 9.134c3.587 2.196 2.542 2.396 4.867-1.081v-.001l1.324-2.052 1.35.819a4.85 4.85 0 0 0 5.135-.047l2.554-1.614a2.103 2.103 0 0 0 1.9 1.216h4.208a.703.703 0 0 0 .702-.702ZM12.16 2.337l1.088.673a2.031 2.031 0 0 1-1.758.44l.67-1.113ZM8.64 8.183a2.102 2.102 0 0 1 .425 1.8l-1.094-.69.669-1.11Zm14.998 11.005-1.094-.69a2.034 2.034 0 0 1 1.807-.414l-.713 1.104Zm1.496-2.318c-1.296-.547-2.885-.18-3.821.85l-11.02-6.961a3.534 3.534 0 0 0-.898-3.83l1.35-2.24c1.29.496 2.832.104 3.741-.913L22.04 8.45c-1.662.91-1.67 3.542-.013 4.47l4.065 2.465-.957 1.485Zm7.893-1.172a3.455 3.455 0 0 1-3.657.034l-6.615-4.011a1.196 1.196 0 0 1-.549-.767c-.257-.988.907-1.872 1.772-1.3l4.394 2.714c.301.21.74.464 1.094.228.455-.239.45-.929.015-1.193l-8.372-5.18 2.977-2.884a5.628 5.628 0 0 1 6.689-.839l5.621 3.155a2.076 2.076 0 0 0-.27 1.008v7.077l-3.099 1.958Zm8.71-.615h-3.506a.703.703 0 0 1-.702-.701V6.664a.7.7 0 0 1 .7-.7h3.509v9.119Z"/><path d="M17.888 8.068c-3.708.118-3.707 5.495 0 5.612 3.708-.118 3.707-5.494 0-5.612Zm0 4.209c-1.844-.033-1.844-2.773 0-2.806 1.844.033 1.843 2.774 0 2.806ZM40.132 13.477c.303-.38.234-.75 0-.997-.37-.294-.74-.246-.996 0a.714.714 0 0 0 0 .997c.25.236.624.296.996 0ZM6.87 40.539c-.24.25-.3.62 0 .996a.704.704 0 1 0 0-.996Z"/></svg><svg fill="none" viewBox="0 0 51 51" id="deliver" xmlns="http://www.w3.org/2000/svg"><g fill="#fff"><path d="m31.329 7.213-2.55-4.25a.85.85 0 0 0-.729-.413h-5.1V.85A.85.85 0 0 0 22.1 0H6.8a.85.85 0 0 0-.85.85v11.9c0 .47.38.85.85.85h2.55a2.55 2.55 0 0 0 5.1 0h9.35a2.55 2.55 0 0 0 5.1 0h1.7c.47 0 .85-.38.85-.85v-5.1a.848.848 0 0 0-.121-.437ZM11.9 14.45a.85.85 0 1 1 0-1.7.85.85 0 0 1 0 1.7Zm9.35-2.55h-7.463a2.52 2.52 0 0 0-3.774 0H7.65V1.7h13.6v10.2Zm5.1-7.65h1.219l1.02 1.7H26.35v-1.7Zm0 10.2a.85.85 0 1 1 0-1.7.85.85 0 0 1 0 1.7Zm3.4-2.55h-1.513a2.52 2.52 0 0 0-3.774 0H22.95V4.25h1.7V6.8c0 .47.38.85.85.85h4.109l.141.235V11.9ZM50.707 37.607 45.9 33.442V27.2a.85.85 0 0 0-.85-.85h-3.4a.85.85 0 0 0-.85.85v1.822l-2.843-2.465a.852.852 0 0 0-1.114 0l-12.75 11.05a.85.85 0 0 0 .557 1.493h4.25v10.2c0 .47.38.85.85.85h15.3c.469 0 .85-.38.85-.85V39.1h4.25a.85.85 0 0 0 .557-1.493ZM39.1 48.45h-3.4V44.2a1.7 1.7 0 1 1 3.4 0v4.25Zm5.95-11.05a.85.85 0 0 0-.85.85v10.2h-3.4V44.2a3.4 3.4 0 1 0-6.8 0v4.25h-3.4v-10.2a.85.85 0 0 0-.85-.85h-2.822L37.4 28.325l3.693 3.2a.85.85 0 0 0 1.407-.642V28.05h1.7v5.78c0 .246.106.48.293.642L47.87 37.4H45.05ZM4.25 2.55H0v1.7h4.25v-1.7ZM4.25 5.95H0v1.7h4.25v-1.7ZM4.25 9.35H0v1.7h4.25v-1.7Z"/><path d="M44.2 8.5H33.15v1.7H44.2a5.1 5.1 0 1 1 0 10.2H12.75C5.708 20.4 0 26.108 0 33.15S5.708 45.9 12.75 45.9H27.2v-1.7H12.75C6.647 44.2 1.7 39.253 1.7 33.15c0-6.103 4.947-11.05 11.05-11.05H44.2a6.8 6.8 0 0 0 0-13.6Z"/></g></svg><svg viewBox="0 0 55 55" id="diet" xmlns="http://www.w3.org/2000/svg"><path d="M6.016 30.938h25.78a2.581 2.581 0 0 0 2.579-2.579v-3.437a2.58 2.58 0 0 0-2.578-2.578H6.016a4.301 4.301 0 0 0-4.297 4.297v6.875a4.302 4.302 0 0 0 4.297 4.297.86.86 0 1 0 0-1.72 2.578 2.578 0 0 1 0-5.156ZM3.437 26.64a2.581 2.581 0 0 1 2.579-2.578h25.78a.86.86 0 0 1 .86.859v3.437a.86.86 0 0 1-.86.86H29.22V26.64a.86.86 0 0 0-1.719 0v2.578h-3.438V27.5a.86.86 0 1 0-1.718 0v1.719h-3.438V26.64a.859.859 0 1 0-1.718 0v2.578H13.75V27.5a.86.86 0 1 0-1.719 0v1.719H8.594V26.64a.86.86 0 1 0-1.719 0v2.578h-.86a4.274 4.274 0 0 0-2.577.86v-3.438Zm6.607-6.102a.86.86 0 0 0 1.148-.398 9.305 9.305 0 0 1 9.003-5.532 9.69 9.69 0 0 1 6.718 2.71.858.858 0 0 0 1.174 0 9.69 9.69 0 0 1 6.718-2.71c6.927 0 10.742 5.188 10.742 14.61 0 .802-.04 1.642-.12 2.498a.86.86 0 0 0 1.712.16 29.07 29.07 0 0 0 .127-2.658c0-10.377-4.542-16.328-12.461-16.328a11.229 11.229 0 0 0-4.727 1.029v-.17a4.302 4.302 0 0 1 4.297-4.297 2.578 2.578 0 1 0 0-5.156 9.464 9.464 0 0 0-9.453 9.453v.17a11.229 11.229 0 0 0-4.727-1.03 11.038 11.038 0 0 0-10.549 6.5.859.859 0 0 0 .398 1.149ZM26.64 13.75a7.743 7.743 0 0 1 7.734-7.734.86.86 0 0 1 0 1.718 6.023 6.023 0 0 0-6.016 6.016v1.15c-.293.202-.58.416-.859.647-.28-.231-.566-.445-.86-.647v-1.15ZM41.69 44.876a.86.86 0 0 1 .132 1.209c-2.424 3.021-5.297 4.618-8.306 4.618a9.06 9.06 0 0 1-6.016-2.237 9.06 9.06 0 0 1-6.016 2.237c-7.097 0-12.116-8.581-13.406-17.058a.859.859 0 0 1 1.7-.259c1.15 7.562 5.644 15.598 11.706 15.598a7.517 7.517 0 0 0 5.413-2.296.86.86 0 0 1 1.206 0 7.516 7.516 0 0 0 5.413 2.296c3.12 0 5.51-2.162 6.965-3.975a.861.861 0 0 1 1.209-.133Zm8.366-17.237a.86.86 0 0 0-.425 1.665 2.577 2.577 0 0 1-.647 5.071h-25.78a2.581 2.581 0 0 0-2.579 2.578v3.438a2.58 2.58 0 0 0 2.578 2.578h25.781a4.302 4.302 0 0 0 4.297-4.297v-6.875a4.283 4.283 0 0 0-3.225-4.159Zm1.507 11.033a2.581 2.581 0 0 1-2.579 2.578h-.859v-2.578a.86.86 0 1 0-1.719 0v2.578H42.97v-1.719a.86.86 0 0 0-1.719 0v1.719h-3.438v-2.578a.86.86 0 1 0-1.718 0v2.578h-3.438v-1.719a.859.859 0 1 0-1.718 0v1.719H27.5v-2.578a.86.86 0 1 0-1.719 0v2.578h-2.578a.86.86 0 0 1-.86-.86v-3.437a.86.86 0 0 1 .86-.86h25.781a4.275 4.275 0 0 0 2.578-.86v3.439Z"/></svg><svg fill="none" viewBox="0 0 42 56" id="dits" xmlns="http://www.w3.org/2000/svg"><path fill="#fff" d="M34.194 13.263a.909.909 0 0 1-.588-.206.858.858 0 0 1-.304-.529A16.94 16.94 0 0 1 35.194 1.73H9.026a17.17 17.17 0 0 1 2.088 8.646c0 .23-.094.45-.261.612a.907.907 0 0 1-.631.253.907.907 0 0 1-.631-.253.851.851 0 0 1-.261-.612 16.048 16.048 0 0 0-2.58-9.079.844.844 0 0 1 0-.862.879.879 0 0 1 .324-.317A.914.914 0 0 1 7.52 0h29.165c.157 0 .311.04.448.115.136.076.25.185.328.317a.844.844 0 0 1 0 .865 15.787 15.787 0 0 0-2.382 10.972.84.84 0 0 1-.164.643.882.882 0 0 1-.586.342l-.134.01Zm1.54 42H22.91a.908.908 0 0 1-.594-.212.89.89 0 0 1-.308-.546 30.69 30.69 0 0 1 .532-10.836 7.75 7.75 0 0 1-3.039 0 31.21 31.21 0 0 1 .532 10.836.89.89 0 0 1-.307.546.908.908 0 0 1-.595.212H6.251a.91.91 0 0 1-.776-.446c-9.217-15.84-4.843-25.57-.992-34.149.361-.811.722-1.614 1.065-2.408a.89.89 0 0 1 .489-.504.91.91 0 0 1 1.003.201.89.89 0 0 1 .167.999c-.343.803-.703 1.614-1.073 2.435-3.824 8.508-7.775 17.302.65 32.106h11.57a32.766 32.766 0 0 0-.946-10.952.883.883 0 0 1 .305-.895.907.907 0 0 1 .948-.121 5.747 5.747 0 0 0 4.726 0 .911.911 0 0 1 .956.124.892.892 0 0 1 .298.892 30.996 30.996 0 0 0-.92 10.934h11.49c8.46-14.795 4.357-23.937 1.056-31.295a.885.885 0 0 1-.02-.684.898.898 0 0 1 .475-.497.914.914 0 0 1 .692-.02.9.9 0 0 1 .503.47c3.31 7.393 7.856 17.525-1.398 33.364a.897.897 0 0 1-.785.446Z"/><path fill="#fff" d="M22.114 44.21a7.405 7.405 0 0 1-3.06-.652.881.881 0 0 1-.37-.313c-3.493-5.22-8.843-8.823-15.828-10.737a.883.883 0 0 1-.515-.384.858.858 0 0 1-.113-.626 28.066 28.066 0 0 1 1.318-4.41.876.876 0 0 1 .448-.476.898.898 0 0 1 .657-.038 55.483 55.483 0 0 0 34.882 0 .897.897 0 0 1 .662.034c.208.096.37.268.452.48a29.344 29.344 0 0 1 1.335 4.41.858.858 0 0 1-.113.634.883.883 0 0 1-.524.385c-7.073 1.905-12.379 5.516-15.818 10.728a.986.986 0 0 1-.372.313 7.43 7.43 0 0 1-3.041.653Zm-2.105-2.14c1.347.54 2.854.54 4.2 0 3.537-5.22 8.842-8.953 15.916-11.007-.203-.87-.469-1.688-.778-2.61a57.282 57.282 0 0 1-34.378 0c-.318.87-.574 1.74-.787 2.61 6.915 2.054 12.255 5.752 15.845 11.007h-.018Zm18.897-17.754H23.108c-11.911 0-20.897-3.537-20.897-8.267V5.305a.885.885 0 1 1 1.767 0c0 3.077 7.855 6.5 19.13 6.5h15.798a.883.883 0 0 1 .884.883v10.744a.884.884 0 0 1-.884.884ZM3.978 8.736v7.313c0 3.068 7.855 6.498 19.13 6.498h14.915v-8.992H23.108c-8.765 0-15.949-1.919-19.13-4.819Z"/><path fill="#fff" d="M32.053 24.316a1.21 1.21 0 0 1-.782-.274.867.867 0 0 1-.324-.66v-4.764c0-.247.117-.485.324-.66.207-.175.488-.274.782-.274.293 0 .574.099.781.274a.868.868 0 0 1 .324.66v4.764a.867.867 0 0 1-.324.66 1.216 1.216 0 0 1-.782.274Zm-4.421 0c-.294 0-.575-.091-.782-.254-.207-.162-.324-.382-.324-.612v-4.9c0-.23.117-.45.324-.612.207-.162.488-.254.782-.254.293 0 .574.091.781.254.207.162.324.383.324.612v4.9c0 .23-.117.45-.324.612a1.277 1.277 0 0 1-.781.254Zm-6.632 0c-.293 0-.575-.114-.782-.317a1.069 1.069 0 0 1-.323-.764v-6.68c0-.287.116-.562.323-.765a1.121 1.121 0 0 1 1.563 0c.208.203.324.478.324.765v6.68c0 .287-.116.561-.324.764a1.117 1.117 0 0 1-.781.317Zm-4.421-2.211c-.293 0-.574-.085-.782-.238-.207-.153-.323-.36-.323-.576v-5.004c0-.215.116-.422.323-.575.208-.153.489-.238.782-.238.293 0 .574.085.781.238.208.153.324.36.324.575v5.005c0 .215-.116.422-.324.575a1.332 1.332 0 0 1-.781.238Zm-6.632 0c-.293 0-.574-.096-.781-.267a.84.84 0 0 1-.324-.645v-4.807a.84.84 0 0 1 .324-.645c.207-.171.488-.267.781-.267.293 0 .574.096.782.267a.84.84 0 0 1 .323.645v4.807a.84.84 0 0 1-.323.645 1.234 1.234 0 0 1-.782.267Z"/></svg><svg fill="none" viewBox="0 0 15 16" id="email" xmlns="http://www.w3.org/2000/svg"><path d="M3.125 3.344h8.125a1.875 1.875 0 0 1 1.875 1.875v5.625a1.875 1.875 0 0 1-1.875 1.875H3.125a1.875 1.875 0 0 1-1.875-1.875V5.22a1.875 1.875 0 0 1 1.875-1.875Zm0 .625c-.313 0-.587.106-.8.294l4.862 3.144 4.863-3.144a1.189 1.189 0 0 0-.8-.294H3.125Zm4.063 4.194L1.955 4.769c-.05.138-.081.294-.081.45v5.625a1.25 1.25 0 0 0 1.25 1.25h8.125a1.25 1.25 0 0 0 1.25-1.25V5.22c0-.156-.031-.312-.081-.45L7.187 8.163Z" fill="#fff"/></svg><svg fill="none" viewBox="0 0 13 22" id="fb" xmlns="http://www.w3.org/2000/svg"><path d="M12 1H9a5.021 5.021 0 0 0-3.536 1.452A4.937 4.937 0 0 0 4 5.958v2.975H1V12.9h3v7.933h4V12.9h3l1-3.967H8V5.958c0-.263.105-.515.293-.701.187-.186.442-.29.707-.29h3V1Z" stroke="#fff" stroke-width="1.5" stroke-linecap="round" stroke-linejoin="round"/></svg><svg viewBox="0 0 54 54" id="free-subscription" xmlns="http://www.w3.org/2000/svg"><path fill-rule="evenodd" clip-rule="evenodd" d="M18.895 47.844H2.685A2.688 2.688 0 0 1 0 45.16V10.893a2.688 2.688 0 0 1 2.685-2.685h14.158a.633.633 0 0 1 0 1.265H2.685c-.782 0-1.42.637-1.42 1.42V45.16c0 .781.638 1.418 1.42 1.418h16.21c.782 0 1.42-.637 1.42-1.42a.633.633 0 1 1 1.265 0 2.688 2.688 0 0 1-2.685 2.686Z"/><path fill-rule="evenodd" clip-rule="evenodd" d="M35.106 45.791h-16.21a2.687 2.687 0 0 1-2.685-2.684V8.84a2.688 2.688 0 0 1 2.684-2.684h16.21A2.688 2.688 0 0 1 37.79 8.84v34.267a2.687 2.687 0 0 1-2.684 2.684Zm-16.21-38.37a1.42 1.42 0 0 0-1.42 1.42v34.266c0 .783.637 1.42 1.42 1.42h16.21c.781 0 1.418-.637 1.418-1.42V8.84c0-.781-.637-1.418-1.418-1.418h-16.21Z"/><path fill-rule="evenodd" clip-rule="evenodd" d="M51.315 47.844h-16.21a2.688 2.688 0 0 1-2.685-2.686.632.632 0 0 1 1.265 0c0 .783.638 1.42 1.42 1.42h16.21c.782 0 1.42-.637 1.42-1.42V10.893c0-.783-.638-1.42-1.42-1.42H37.157a.633.633 0 1 1 0-1.265h14.158A2.688 2.688 0 0 1 54 10.893V45.16a2.688 2.688 0 0 1-2.685 2.684ZM8.738 23.841a3.253 3.253 0 0 1-3.25-3.25.633.633 0 0 1 1.266 0c0 1.094.89 1.984 1.984 1.984 1.093 0 1.984-.89 1.984-1.983 0-1.094-.89-1.983-1.984-1.983a3.253 3.253 0 0 1-3.25-3.25 3.253 3.253 0 0 1 3.25-3.248 3.253 3.253 0 0 1 3.25 3.248.633.633 0 1 1-1.266 0c0-1.093-.89-1.982-1.984-1.982-1.094 0-1.984.889-1.984 1.982 0 1.094.89 1.984 1.984 1.984a3.253 3.253 0 0 1 3.25 3.249 3.253 3.253 0 0 1-3.25 3.25ZM13.201 26.831H4.275a.633.633 0 1 1 0-1.266h8.926a.633.633 0 1 1 0 1.266ZM13.201 32.68H4.275a.633.633 0 1 1 0-1.266h8.926a.633.633 0 1 1 0 1.265ZM13.201 38.526H4.275a.632.632 0 1 1 0-1.265h8.926a.633.633 0 0 1 0 1.265ZM13.612 43.941H3.864a.633.633 0 0 1-.633-.633v-2.41c0-.35.284-.633.633-.633h9.748c.349 0 .633.282.633.633v2.41c0 .35-.284.633-.633.633Zm-9.114-1.265h8.48V41.53h-8.48v1.146Z"/><path fill-rule="evenodd" clip-rule="evenodd" d="M45.262 23.841a3.253 3.253 0 0 1-3.25-3.25.633.633 0 0 1 1.266 0c0 1.094.89 1.984 1.984 1.984 1.094 0 1.983-.89 1.983-1.983 0-1.094-.89-1.983-1.983-1.983a3.253 3.253 0 0 1-3.25-3.25 3.253 3.253 0 0 1 3.25-3.248 3.253 3.253 0 0 1 3.249 3.248.632.632 0 1 1-1.266 0 1.985 1.985 0 0 0-3.967 0c0 1.094.89 1.984 1.984 1.984a3.253 3.253 0 0 1 3.249 3.249 3.253 3.253 0 0 1-3.249 3.25ZM49.725 26.837h-8.926a.633.633 0 0 1 0-1.265h8.926a.633.633 0 1 1 0 1.265ZM49.725 32.685h-8.926a.633.633 0 0 1 0-1.265h8.926a.632.632 0 1 1 0 1.265ZM49.725 38.533h-8.926a.633.633 0 1 1 0-1.266h8.926a.633.633 0 1 1 0 1.266ZM50.135 43.941h-9.746a.633.633 0 0 1-.633-.633v-2.41c0-.35.284-.633.633-.633h9.746c.35 0 .633.282.633.633v2.41c0 .35-.283.633-.633.633Zm-9.113-1.265h8.48V41.53h-8.48v1.146ZM27 21.22a3.252 3.252 0 0 1-3.249-3.248.633.633 0 0 1 1.266 0c0 1.094.89 1.983 1.983 1.983 1.094 0 1.984-.89 1.984-1.983 0-1.094-.89-1.984-1.984-1.984a3.253 3.253 0 0 1-3.249-3.248 3.253 3.253 0 0 1 3.25-3.25 3.253 3.253 0 0 1 3.249 3.25.633.633 0 0 1-1.266 0c0-1.094-.89-1.984-1.984-1.984-1.093 0-1.983.89-1.983 1.984 0 1.093.89 1.982 1.983 1.982a3.253 3.253 0 0 1 3.25 3.25A3.252 3.252 0 0 1 27 21.22ZM31.463 24.785h-8.925a.632.632 0 1 1 0-1.265h8.925a.632.632 0 1 1 0 1.265ZM31.463 30.633h-8.925a.632.632 0 1 1 0-1.265h8.925a.633.633 0 1 1 0 1.265ZM31.463 36.481h-8.925a.633.633 0 1 1 0-1.265h8.925a.633.633 0 1 1 0 1.265ZM31.872 42.457h-9.746a.633.633 0 0 1-.633-.632v-2.411c0-.35.284-.633.633-.633h9.746c.35 0 .633.284.633.633v2.41c0 .35-.283.633-.633.633Zm-9.113-1.265h8.48v-1.146h-8.48v1.146Z"/></svg><svg fill="none" viewBox="0 0 52 49" id="fruit" xmlns="http://www.w3.org/2000/svg"><path fill="#fff" d="m47.768 38.582-.566-.13c5.483-4.512 6.651-14.53 1.487-19.75-1.987-2.008-3.174-5.186-3.174-8.501 0-4.805-3.147-8.715-7.016-8.715-3.868 0-7.016 3.91-7.016 8.715 0 1.092-.128 2.168-.373 3.192-3.604-4.179-9.328-4.658-13.155-1.987V1.605a.768.768 0 0 0-.765-.77.768.768 0 0 0-.767.77v3.021C14.136.48 9.973-.629 5.31.314a.771.771 0 0 0-.558 1.046c.043.105 1.075 2.603 3.068 4.79 2.36 2.59 5.288 3.876 8.603 2.954v2.303c-4.499-3.14-12.032-2.013-15.127 5.147a.77.77 0 0 0 .398 1.012.764.764 0 0 0 1.007-.4c2.833-6.551 9.605-7.08 13.197-4.239a2 2 0 0 0 2.582 0c4.09-3.235 11.164-1.827 13.588 5.252 1.303 3.813 1.042 7.8-1.22 11.924-.9 1.617-1.64 2.96-2.25 4.08-4.744-1.026-5.421-1.402-7.036-1.367a.766.766 0 0 0-.75.784.765.765 0 0 0 .782.754c.277-.006.593.009.926.05l-.46 4.144a.767.767 0 1 0 1.523.17l.444-4.006c3.06.701 5.052 1.159 7.425 1.704l-.22 1.976a.767.767 0 1 0 1.523.17l.2-1.801 11.482 2.635-.591 5.335a.767.767 0 1 0 1.523.17l.572-5.16 1.486.341a3.692 3.692 0 0 1 2.85 4.03 3.7 3.7 0 0 1-3.665 3.3l-7.84.016.278-2.51a.767.767 0 1 0-1.523-.17l-.297 2.683-7.515.014.261-2.358a.767.767 0 1 0-1.523-.17l-.28 2.532-3.598.006.456-4.105a.766.766 0 1 0-1.523-.17l-.475 4.279h-.027l-1.27.002c-3.006 0-5.584-2.06-6.316-4.907-.752-2.908.564-6.155 3.527-7.57a.77.77 0 0 0 .364-1.025.764.764 0 0 0-1.02-.365 8.05 8.05 0 0 0-3.5 3.207c-1.55-.777-3.324-1.998-4.27-3.798-1.222-2.332-4.748-1.456-4.76 1.177l-2.4-4.383c-1.645-3.003-2.248-6.373-1.532-9.852a.766.766 0 1 0-1.5-.312c-.768 3.733-.185 7.483 1.69 10.906l3.272 5.975-2.398-.269a2.528 2.528 0 0 0-2.791 2.242 2.538 2.538 0 0 0 2.23 2.803l3.972.444c-.985.885-1.778 1.688-1.678 2.954.172 2.237 2.974 3.17 4.438 1.451 1.206-1.416 3.089-2.291 4.998-2.764C15.1 46.634 18.148 49 21.737 49l24.877-.048c2.896-.006 5.219-2.363 5.219-5.255a5.218 5.218 0 0 0-4.065-5.115ZM6.588 1.656c5.094-.699 8.306 1.74 9.379 5.977-4.15 1.123-7.414-2.173-9.379-5.977Zm38.616 36.337L30.157 34.54c.434-.8.917-1.683 1.454-2.655 1.419 2.455 4.064 4.109 7.086 4.109 3.889 0 7.264-2.776 8.026-6.601a.765.765 0 1 0-1.502-.302c-.62 3.108-3.363 5.364-6.524 5.364-2.798 0-5.199-1.745-6.18-4.209 1.273-2.433 1.882-5.004 1.862-7.555 3.843-3.301 9.77-1.219 10.82 3.659a.765.765 0 1 0 1.497-.326 8.256 8.256 0 0 0-2.827-4.626 8.152 8.152 0 0 0-9.612-.53c-.255-2.023-.924-4.13-1.993-5.887.49-1.487.752-3.107.752-4.78 0-3.55 2.201-7.176 5.483-7.176 3.247 0 5.484 3.577 5.484 7.176 0 3.768 1.32 7.261 3.62 9.586 3.99 4.03 3.603 11.511.138 15.919-.753.957-1.61 1.726-2.537 2.287ZM13.736 41.86c-2.182.533-4.39 1.581-5.836 3.28a.993.993 0 0 1-1.402.11 1 1 0 0 1-.11-1.409 10.613 10.613 0 0 1 2.317-2.013c.603-.391.384-1.33-.331-1.41l-5.872-.658a1 1 0 0 1 .22-1.985h.01-.005l.019.002h-.002l.018.002-.011-.001 5.306.594c.244-.016.986.301 1.31-.367a.772.772 0 0 0-.141-.876 10.648 10.648 0 0 1-1.818-2.475 1.003 1.003 0 0 1 .414-1.35h.001a.991.991 0 0 1 1.343.417c1.13 2.149 3.2 3.578 4.98 4.467a8.216 8.216 0 0 0-.41 3.672Z"/></svg><svg viewBox="0 0 45 45" id="healthy-food" xmlns="http://www.w3.org/2000/svg"><path d="m41.337 34.645-.49-.112c4.746-3.888 5.757-12.519 1.288-17.016-1.72-1.73-2.747-4.467-2.747-7.323 0-4.14-2.724-7.508-6.072-7.508-3.347 0-6.07 3.368-6.07 7.508 0 .94-.112 1.868-.324 2.75-3.119-3.6-8.072-4.013-11.384-1.711V2.788a.663.663 0 0 0-1.325 0v2.603C12.232 1.82 8.63.864 4.595 1.676a.664.664 0 0 0-.483.902c.037.09.93 2.242 2.656 4.127 2.041 2.23 4.575 3.338 7.445 2.544v1.984C10.319 8.527 3.8 9.498 1.12 15.667a.663.663 0 0 0 1.217.528c2.45-5.645 8.311-6.1 11.42-3.652.647.544 1.59.542 2.235 0 3.538-2.787 9.66-1.574 11.758 4.524 1.128 3.285.902 6.72-1.056 10.273a486.828 486.828 0 0 0-1.947 3.515c-4.105-.884-4.691-1.208-6.089-1.178a.661.661 0 0 0-.649.676.66.66 0 0 0 .677.65c.24-.006.513.006.801.042l-.398 3.57a.663.663 0 1 0 1.318.147l.385-3.452 6.425 1.469-.19 1.702a.663.663 0 1 0 1.318.147l.172-1.552c.41.093 9.82 2.242 9.937 2.27l-.512 4.596a.663.663 0 0 0 1.318.147l.495-4.446 1.287.294a3.182 3.182 0 0 1 2.466 3.472 3.196 3.196 0 0 1-3.172 2.843l-6.785.013.241-2.161a.663.663 0 1 0-1.318-.147l-.257 2.311-6.503.012.226-2.032a.663.663 0 1 0-1.318-.146l-.243 2.181-3.113.006.394-3.537a.663.663 0 1 0-1.318-.147l-.41 3.687h-.024l-1.098.002a5.645 5.645 0 0 1-2.414-10.749.663.663 0 1 0-.569-1.198A6.954 6.954 0 0 0 12.8 33.11c-1.341-.669-2.876-1.721-3.694-3.272-1.058-2.01-4.109-1.255-4.12 1.014L2.91 27.076c-1.424-2.587-1.946-5.49-1.326-8.487a.663.663 0 0 0-1.298-.268c-.665 3.215-.16 6.445 1.461 9.394l2.833 5.148-2.076-.232a2.185 2.185 0 0 0-2.415 1.931 2.189 2.189 0 0 0 1.93 2.415l3.437.383c-.852.763-1.538 1.454-1.452 2.545.15 1.927 2.574 2.73 3.841 1.25 1.043-1.22 2.673-1.974 4.325-2.381a6.98 6.98 0 0 0 6.642 4.846l21.528-.042a4.523 4.523 0 0 0 4.516-4.527 4.5 4.5 0 0 0-3.517-4.406ZM5.703 2.832c4.408-.601 7.187 1.5 8.115 5.15-3.59.967-6.415-1.872-8.115-5.15Zm33.417 31.306-13.022-2.976c.376-.69.794-1.45 1.259-2.287a7.09 7.09 0 0 0 6.132 3.54 7.099 7.099 0 0 0 6.945-5.687.663.663 0 0 0-1.3-.26 5.77 5.77 0 0 1-5.645 4.621 5.767 5.767 0 0 1-5.348-3.626c1.1-2.096 1.628-4.311 1.61-6.509 3.327-2.844 8.455-1.05 9.364 3.152a.662.662 0 1 0 1.296-.28 7.08 7.08 0 0 0-10.765-4.442c-.22-1.743-.8-3.56-1.725-5.072.425-1.281.651-2.676.651-4.118 0-3.059 1.905-6.183 4.745-6.183 2.81 0 4.746 3.082 4.746 6.183 0 3.246 1.142 6.255 3.132 8.258 3.453 3.472 3.119 9.918.12 13.714-.652.825-1.393 1.488-2.195 1.972Zm-27.232 3.33c-1.889.46-3.8 1.363-5.05 2.826a.86.86 0 1 1-1.308-1.118 9.17 9.17 0 0 1 2.004-1.735c.522-.337.332-1.146-.287-1.215l-5.08-.567a.86.86 0 1 1 .19-1.71l.008.001H2.36l.016.001h-.001l.015.002-.01-.001 4.593.512c.21-.014.853.26 1.134-.317a.663.663 0 0 0-.123-.755A9.172 9.172 0 0 1 6.41 31.26a.86.86 0 1 1 1.522-.803c.977 1.85 2.769 3.082 4.31 3.848a7.05 7.05 0 0 0-.355 3.164Z"/></svg><svg fill="none" viewBox="0 0 350 428" id="imgCircl" xmlns="http://www.w3.org/2000/svg"><path d="M253.555 10.65c141.396-18.873 215.124 98.709 210.392 244.338-11.057 181.056-222.993 207.764-357.799 134.448C-81.55 286.951 9.897 79.689 147.841 18.939 256.259-28.887 442.775 8.88 468.148 189.675c28.994 209.723-169.786 253.607-291 206.737-48.186-18.777-75.176-46.513-94.175-80.555C16.39 174.123 133.766 24.457 277.89 46.34c93.185 14.333 159.453 67.893 158.053 162.589-1.714 73.006-41.209 143.694-112.74 171.549-155.47 59.34-332.692-101.816-279.58-227.951 13.253-31.916 41.474-66.077 80.1-88.94C239.288-7.362 499.507 42.256 448.545 249.9c-6.084 24.75-16.32 47.779-29.597 68.013-96.928 146.632-313.741 92.355-376.967 11.634-32.156-40.922-20.327-80.984-20.786-77.234C8.617 355.991 146.078 407.687 236.536 407.807c139.199 3.32 230.646-115.743 212.782-235.237-15.137-98.495-112.765-133.923-213.41-135.022C114.815 36.426-8.426 147.94 58.156 270.898c73.679 133.875 265.168 162.112 343.096 38.891 50.89-80.53 53.739-231.605-124.038-259.221-244.841-37.458-314.296 375.036 9.898 358.72 119.186-7.024 196.076-82.059 177.994-219.207C440.265 11.438 255.97-25.853 148.854 21.232 13.108 80.836-79.402 285.685 107.018 387.86c133.284 72.767 344.472 47.564 355.843-132.895 4.852-142.547-66.389-262.686-209.257-243.86-.314.047-.387-.43-.073-.479l.024.024Z" fill="#B0B0B0" fill-opacity=".41"/></svg><svg fill="none" viewBox="0 0 22 22" id="instagram" xmlns="http://www.w3.org/2000/svg"><path fill-rule="evenodd" clip-rule="evenodd" d="M6.872.814h7.944a6.621 6.621 0 0 1 6.621 6.621v7.945a6.621 6.621 0 0 1-6.62 6.62H6.871A6.621 6.621 0 0 1 .25 15.38V7.435a6.621 6.621 0 0 1 6.62-6.62Zm7.944 19.2a4.64 4.64 0 0 0 4.635-4.634V7.435A4.64 4.64 0 0 0 14.816 2.8H6.872a4.64 4.64 0 0 0-4.635 4.635v7.945a4.64 4.64 0 0 0 4.635 4.634h7.944ZM5.44 11.407a5.405 5.405 0 1 1 10.81 0 5.405 5.405 0 0 1-10.81 0Zm2.027 0a3.383 3.383 0 0 0 3.377 3.377 3.383 3.383 0 0 0 3.378-3.377 3.382 3.382 0 0 0-3.378-3.378 3.382 3.382 0 0 0-3.377 3.378Zm8.998-4.972a.649.649 0 1 0 0-1.297.649.649 0 0 0 0 1.297Z" fill="#fff"/></svg><svg fill="none" viewBox="0 0 50 47" id="like" xmlns="http://www.w3.org/2000/svg"><path fill="#fff" d="M37.904 0a12.097 12.097 0 1 0 12.097 12.097A12.11 12.11 0 0 0 37.904 0Zm0 22.58a10.484 10.484 0 1 1 10.484-10.483A10.496 10.496 0 0 1 37.904 22.58Z"/><path fill="#fff" d="M41.17 5.645a4.763 4.763 0 0 0-3.266 1.283 4.799 4.799 0 0 0-8.064 3.515 6.291 6.291 0 0 0 2.109 4.697l5.419 4.818a.806.806 0 0 0 1.073 0l5.419-4.818a6.291 6.291 0 0 0 2.109-4.697 4.804 4.804 0 0 0-4.799-4.798Zm1.618 8.29-4.884 4.34-4.884-4.34a4.67 4.67 0 0 1-1.567-3.492 3.186 3.186 0 0 1 5.438-2.252l.443.444a.806.806 0 0 0 1.14 0l.444-.444a3.185 3.185 0 0 1 5.438 2.252 4.672 4.672 0 0 1-1.568 3.492ZM.806 46.774h8.065a.806.806 0 0 0 .806-.806h16.936a4.038 4.038 0 0 0 4.018-3.697 6.264 6.264 0 0 0 1.627-4.23v-.61l.287-.288a4.499 4.499 0 0 0 1.326-3.2 4.56 4.56 0 0 0-.478-2.025l-.242-.478a8.492 8.492 0 0 0 .72-3.405v-.117A2.918 2.918 0 0 0 30.953 25h-7.874a.498.498 0 0 1-.446-.726l.701-1.401A15.862 15.862 0 0 0 25 15.82a2.918 2.918 0 0 0-2.918-2.918h-1.114a2.42 2.42 0 0 0-2.42 2.42 6.936 6.936 0 0 1-2.045 4.937l-2.274 2.274a12.23 12.23 0 0 0-2.939 4.755 2.546 2.546 0 0 1-1.638 1.62.796.796 0 0 0-.781-.683H.806a.807.807 0 0 0-.806.806v16.936a.806.806 0 0 0 .806.806Zm12.016-18.976a10.605 10.605 0 0 1 2.55-4.124l2.274-2.274a8.535 8.535 0 0 0 2.515-6.077.806.806 0 0 1 .806-.807h1.115a1.306 1.306 0 0 1 1.305 1.305 14.235 14.235 0 0 1-1.495 6.334l-.702 1.402a2.111 2.111 0 0 0 1.889 3.056h7.874a1.313 1.313 0 0 1 1.11.618 1.3 1.3 0 0 1 .195.687v.117a6.862 6.862 0 0 1-.726 3.056.807.807 0 0 0 0 .721l.414.827a2.895 2.895 0 0 1-.542 3.364l-.523.523a.807.807 0 0 0-.236.57v.945a4.667 4.667 0 0 1-1.377 3.324.807.807 0 0 0-.236.57 2.42 2.42 0 0 1-2.42 2.42H9.678V30.558a4.15 4.15 0 0 0 3.145-2.76Zm-11.21 2.04h6.452v15.323H1.613V29.839Z"/></svg><svg fill="none" viewBox="0 0 15 16" id="mail" xmlns="http://www.w3.org/2000/svg"><path d="M3.125 3.344h8.125a1.875 1.875 0 0 1 1.875 1.875v5.625a1.875 1.875 0 0 1-1.875 1.875H3.125a1.875 1.875 0 0 1-1.875-1.875V5.22a1.875 1.875 0 0 1 1.875-1.875Zm0 .625c-.313 0-.587.106-.8.294l4.862 3.144 4.863-3.144a1.189 1.189 0 0 0-.8-.294H3.125Zm4.063 4.194L1.955 4.769c-.05.138-.081.294-.081.45v5.625a1.25 1.25 0 0 0 1.25 1.25h8.125a1.25 1.25 0 0 0 1.25-1.25V5.22c0-.156-.031-.312-.081-.45L7.187 8.163Z" fill="#fff"/></svg><svg fill="none" viewBox="0 0 32 32" id="meat" xmlns="http://www.w3.org/2000/svg"><g fill="#000"><path d="M31.155 24.549a2.91 2.91 0 0 0-.45-.368.47.47 0 0 0-.518.783c.54.358.874.974.874 1.625a1.944 1.944 0 0 1-2.038 1.943.473.473 0 0 0-.491.491 1.95 1.95 0 0 1-.568 1.468 1.94 1.94 0 0 1-2.75 0 1.932 1.932 0 0 1-.57-1.376c0-.52.202-1.008.57-1.375.257-.258.658-.544.29-.912l-1.856-1.856 1.324-1.324 1.856 1.855a.48.48 0 0 0 .712-.055 1.923 1.923 0 0 1 .986-.713.47.47 0 0 0-.283-.896c-.41.13-.789.353-1.103.648l-1.66-1.66s-.436-1.096-.508-1.612c-.157-1.11-.172-2.216-.16-3.331.008-.822.016-1.646-.063-2.464-.401-4.152-2.506-7.796-4.201-10.12-1.568-2.15-3.552-4.044-3.586-4.078-1.242-1.242-3.24-1.55-5.624-.866-2.288.656-4.687 2.157-6.756 4.226S1.012 9.05.356 11.338c-.684 2.384-.376 4.382.866 5.624.03.03 1.911 2.006 4.077 3.585 1.906 1.39 3.995 2.559 6.228 3.332.652.226 1.318.417 1.992.566 1.087.241 2.193.367 3.31.37 1.465.005 2.927-.049 4.386.157.516.072 1.562.497 1.587.502l1.685 1.666a2.864 2.864 0 0 0-.783 1.975c0 .77.3 1.495.845 2.04.545.545 1.27.845 2.04.845s1.495-.3 2.04-.845c.46-.46.748-1.063.824-1.702a2.893 2.893 0 0 0 1.702-.825c.545-.544.845-1.269.845-2.04 0-.77-.3-1.494-.845-2.039ZM1.26 11.597c.613-2.138 2.029-4.393 3.987-6.351 1.958-1.958 4.213-3.374 6.351-3.987.746-.214 1.443-.32 2.075-.32 1.096 0 1.998.32 2.626.947.99.99 1.212 2.66.627 4.7-.613 2.138-2.029 4.394-3.987 6.352-1.958 1.958-4.214 3.374-6.351 3.987-2.042.585-3.71.363-4.7-.627-.99-.99-1.213-2.66-.628-4.7Zm20.087 12.445a16.606 16.606 0 0 0-.924-.104c-.88-.074-1.76-.084-2.651-.071-1.78.025-3.377-.108-5.083-.603-2.51-.729-4.714-1.932-6.817-3.462a28.994 28.994 0 0 1-2.07-1.66c.229.028.465.042.71.042.72 0 1.504-.118 2.335-.356 2.288-.656 4.687-2.157 6.756-4.226s3.57-4.468 4.226-6.756c.319-1.112.422-2.14.315-3.045.508.578 1.08 1.274 1.659 2.07 1.62 2.226 3.632 5.706 4.012 9.64.188 1.94-.046 3.894.228 5.835.077.55.251 1.037.428 1.476l-1.648 1.648c-.439-.177-.926-.35-1.476-.428Z"/><path d="M7.123 15.842c1.752-.588 3.62-1.816 5.262-3.458 1.641-1.641 2.87-3.51 3.458-5.261.625-1.862.461-3.396-.462-4.32C13.535.957 9.326 2.273 5.8 5.8a17.101 17.101 0 0 0-1.497 1.708.47.47 0 0 0 .747.57c.425-.557.9-1.1 1.414-1.613 3.049-3.05 6.828-4.421 8.253-2.997.648.649.734 1.872.236 3.357-.544 1.616-1.691 3.355-3.232 4.896-1.541 1.54-3.28 2.689-4.897 3.232-1.484.499-2.708.413-3.356-.236-.882-.881-.714-2.752.438-4.882a.47.47 0 1 0-.826-.447c-1.378 2.548-1.481 4.788-.276 5.994.555.554 1.33.835 2.264.835.62 0 1.312-.124 2.055-.374Z"/><path d="M10.42 9.16c.713 0 1.591-.453 2.344-1.274 1.11-1.21 1.4-2.625.675-3.29-.383-.35-.954-.412-1.61-.174-.552.201-1.123.603-1.609 1.133-1.11 1.21-1.4 2.624-.675 3.29.234.213.535.316.874.316Zm.493-2.97c.38-.415.83-.737 1.237-.885.41-.15.795-.117.741.404-.06.577-.44 1.127-.82 1.542-.788.86-1.66 1.112-1.891.9-.23-.21-.056-1.101.733-1.962Z"/></g></svg><svg fill="none" viewBox="0 0 48 48" id="menu" xmlns="http://www.w3.org/2000/svg"><path fill-rule="evenodd" clip-rule="evenodd" d="M36 16a3 3 0 0 1 6 0v20.303l-3 4.5-3-4.5V16Zm3-1a1 1 0 0 0-1 1v19.697l1 1.5 1-1.5V16a1 1 0 0 0-1-1Z" fill="#fff"/><path fill-rule="evenodd" clip-rule="evenodd" d="M41 20h-4v-2h4v2ZM10 8a2 2 0 0 0-2 2v28a2 2 0 0 0 2 2h20a2 2 0 0 0 2-2V10a2 2 0 0 0-2-2H10Zm-4 2a4 4 0 0 1 4-4h20a4 4 0 0 1 4 4v28a4 4 0 0 1-4 4H10a4 4 0 0 1-4-4V10Z" fill="#fff"/><path fill-rule="evenodd" clip-rule="evenodd" d="M20 15a1 1 0 0 1 1-1h8a1 1 0 0 1 0 2h-8a1 1 0 0 1-1-1Zm0 4a1 1 0 0 1 1-1h8a1 1 0 0 1 0 2h-8a1 1 0 0 1-1-1Zm0 9a1 1 0 0 1 1-1h8a1 1 0 0 1 0 2h-8a1 1 0 0 1-1-1Zm0 4a1 1 0 0 1 1-1h8a1 1 0 0 1 0 2h-8a1 1 0 0 1-1-1Zm-8-4v3h3v-3h-3Zm-1-2h5a1 1 0 0 1 1 1v5a1 1 0 0 1-1 1h-5a1 1 0 0 1-1-1v-5a1 1 0 0 1 1-1Zm6.707-11.707a1 1 0 0 1 0 1.414L13 20.414l-2.707-2.707a1 1 0 1 1 1.414-1.414L13 17.586l3.293-3.293a1 1 0 0 1 1.414 0Z" fill="#fff"/></svg><svg viewBox="0 0 55 55" fill="none" id="money-back" xmlns="http://www.w3.org/2000/svg"><g fill="#fff"><path d="M23.073 37.813h19.036a.86.86 0 0 0 .86-.86v-13.75a.86.86 0 0 0-.86-.86H12.891a.86.86 0 0 0-.86.86v4.402a9.625 9.625 0 0 0-1.363-.105 9.7 9.7 0 0 0-4.314 1.018l-.995.498A10.104 10.104 0 0 1 .86 30.078v1.719c1.819 0 3.64-.43 5.268-1.244l.995-.497c2.702-1.35 6.142-.984 8.497.9l4.953 3.961c.58.465.912 1.157.912 1.899 0 .482-.14.948-.409 1.349l-.689 1.034-7.02-4.68-.952 1.43 7.734 5.157a.86.86 0 0 0 .342.134l14.372 2.27a1.45 1.45 0 0 1 1.23 1.44 1.46 1.46 0 0 1-1.457 1.456H21.484c-2.115 0-4.234-.5-6.126-1.446l-4.933-2.467a11.84 11.84 0 0 0-5.268-1.243H.86v1.719h4.297c1.554 0 3.11.367 4.5 1.062l4.932 2.466a15.5 15.5 0 0 0 6.896 1.628h13.151a3.18 3.18 0 0 0 3.177-3.175 3.162 3.162 0 0 0-2.68-3.139l-13.048-2.06.421-.632c.268-.402.452-.845.567-1.306Zm14.826-1.72a4.31 4.31 0 0 1 3.351-3.35v3.35H37.9Zm3.351-8.68a4.31 4.31 0 0 1-3.35-3.35h3.35v3.35Zm-24.15-3.35a4.31 4.31 0 0 1-3.35 3.35v-3.35h3.35Zm4.546 9.512-3.297-2.638h3.136V29.22h-3.438v1.477l-1.353-1.082c-.43-.345-.89-.65-1.37-.913a6.027 6.027 0 0 0 3.514-4.638h17.325a6.02 6.02 0 0 0 5.087 5.088v1.856a6.02 6.02 0 0 0-5.087 5.088H23.135a4.13 4.13 0 0 0-1.489-2.52Z"/><path d="M27.5 34.375a4.302 4.302 0 0 0 4.297-4.297 4.302 4.302 0 0 0-4.297-4.297 4.302 4.302 0 0 0-4.297 4.297 4.302 4.302 0 0 0 4.297 4.297Zm0-6.875a2.581 2.581 0 0 1 2.578 2.578 2.581 2.581 0 0 1-2.578 2.578 2.581 2.581 0 0 1-2.578-2.578A2.581 2.581 0 0 1 27.5 27.5ZM33.516 29.219h3.437v1.718h-3.437V29.22ZM33.516 9.453h-3.438V7.735a.86.86 0 0 0-1.244-.77L18.52 12.122a.861.861 0 0 0 .001 1.538l10.313 5.156a.862.862 0 0 0 1.244-.77v-1.718h3.437c7.581 0 13.75 6.169 13.75 13.75 0 .475.384.86.859.86h5.156a.86.86 0 0 0 .86-.86c0-11.372-9.253-20.625-20.625-20.625ZM48.96 29.22c-.448-8.132-7.204-14.61-15.445-14.61h-4.297a.86.86 0 0 0-.86.86v1.188l-7.531-3.766 7.531-3.766v1.188c0 .474.384.859.86.859h4.297c10.137 0 18.435 8.02 18.887 18.047h-3.442Z"/></g></svg><svg fill="none" viewBox="0 0 73 73" id="phone" xmlns="http://www.w3.org/2000/svg"><circle cx="36.5" cy="36.5" r="36.5" fill="#FFA800"/><path d="M51.483 36.162c-.51 0-.965-.184-1.364-.551a2.131 2.131 0 0 1-.695-1.364c-.415-2.968-1.667-5.498-3.757-7.59-2.092-2.09-4.622-3.342-7.59-3.757a2.182 2.182 0 0 1-1.364-.67 1.932 1.932 0 0 1-.551-1.389c0-.543.191-.998.574-1.366.384-.366.83-.517 1.341-.453 4.022.447 7.453 2.09 10.294 4.931 2.84 2.84 4.484 6.272 4.931 10.294.064.51-.088.958-.456 1.34a1.81 1.81 0 0 1-1.363.575Zm-7.996 0c-.415 0-.782-.144-1.101-.43-.32-.288-.559-.671-.718-1.15-.255-.926-.742-1.748-1.46-2.467-.718-.717-1.54-1.204-2.466-1.459-.479-.16-.862-.399-1.15-.718a1.658 1.658 0 0 1-.43-1.15c0-.638.223-1.157.67-1.556.447-.399.942-.534 1.484-.406a9.43 9.43 0 0 1 4.622 2.56 9.43 9.43 0 0 1 2.56 4.622c.128.542-.016 1.037-.43 1.484-.416.447-.942.67-1.58.67Zm7.9 17.236c-4.117 0-8.13-.918-12.04-2.754a36.473 36.473 0 0 1-10.39-7.277 36.473 36.473 0 0 1-7.277-10.39c-1.836-3.91-2.754-7.923-2.754-12.04 0-.575.191-1.053.574-1.437.383-.383.862-.574 1.437-.574h7.756c.447 0 .846.144 1.197.43.351.288.558.655.622 1.102l1.245 6.703c.064.447.056.853-.023 1.22-.08.368-.264.695-.551.982l-4.597 4.692c1.34 2.298 3.017 4.453 5.027 6.464a35.03 35.03 0 0 0 6.656 5.219l4.5-4.5c.287-.288.663-.504 1.126-.648a3.088 3.088 0 0 1 1.364-.119l6.607 1.34c.447.096.814.312 1.101.646.287.336.431.727.431 1.174v7.756c0 .575-.192 1.054-.575 1.437-.383.383-.861.574-1.436.574Z" fill="#fff"/></svg><svg fill="none" viewBox="0 0 24 24" id="phoneTalk" xmlns="http://www.w3.org/2000/svg"><path d="M20 12a1.02 1.02 0 0 1-.712-.288 1.112 1.112 0 0 1-.363-.712c-.217-1.55-.87-2.871-1.962-3.963C15.871 5.946 14.55 5.292 13 5.075a1.139 1.139 0 0 1-.712-.35A1.009 1.009 0 0 1 12 4c0-.283.1-.521.3-.713.2-.191.433-.27.7-.237 2.1.233 3.892 1.092 5.375 2.575S20.717 8.9 20.95 11a.82.82 0 0 1-.238.7c-.191.2-.429.3-.712.3Zm-4.175 0a.834.834 0 0 1-.575-.225 1.37 1.37 0 0 1-.375-.6 2.89 2.89 0 0 0-.762-1.288 2.89 2.89 0 0 0-1.288-.762 1.37 1.37 0 0 1-.6-.375.866.866 0 0 1-.225-.6c0-.333.117-.604.35-.813.233-.208.492-.279.775-.212a4.924 4.924 0 0 1 2.413 1.337 4.924 4.924 0 0 1 1.337 2.413c.067.283-.008.542-.225.775-.217.233-.492.35-.825.35Zm4.125 9c-2.15 0-4.246-.48-6.287-1.438a19.045 19.045 0 0 1-5.425-3.8 19.045 19.045 0 0 1-3.8-5.425C3.479 8.296 3 6.2 3 4.05c0-.3.1-.55.3-.75.2-.2.45-.3.75-.3H8.1a.96.96 0 0 1 .625.225.88.88 0 0 1 .325.575l.65 3.5c.033.233.03.446-.012.637a1.027 1.027 0 0 1-.288.513L7 10.9c.7 1.2 1.575 2.325 2.625 3.375A18.293 18.293 0 0 0 13.1 17l2.35-2.35c.15-.15.346-.263.588-.338.241-.075.479-.095.712-.062l3.45.7c.233.05.425.162.575.337.15.175.225.38.225.613v4.05c0 .3-.1.55-.3.75-.2.2-.45.3-.75.3Z" fill="#302929"/></svg><svg fill="none" viewBox="0 0 33 33" id="search" xmlns="http://www.w3.org/2000/svg"><path d="m29.813 32.484-10.5-10.515a11.167 11.167 0 0 1-3.235 1.784 11.414 11.414 0 0 1-3.89.657c-3.407 0-6.29-1.181-8.648-3.544C1.18 18.503 0 15.616 0 12.205c0-3.411 1.18-6.298 3.54-8.662C5.899 1.181 8.781 0 12.188 0c3.406 0 6.289 1.181 8.649 3.543 2.359 2.364 3.538 5.25 3.538 8.662a11.46 11.46 0 0 1-.656 3.896 11.194 11.194 0 0 1-1.782 3.239l10.547 10.562c.344.344.516.767.516 1.267 0 .501-.188.94-.563 1.315-.343.344-.78.516-1.312.516-.531 0-.969-.172-1.313-.516Zm-17.625-11.83c2.343 0 4.336-.82 5.977-2.463 1.64-1.644 2.46-3.64 2.46-5.986 0-2.347-.82-4.343-2.46-5.986-1.641-1.643-3.634-2.464-5.977-2.464-2.344 0-4.337.822-5.978 2.464-1.64 1.643-2.46 3.639-2.46 5.986s.82 4.342 2.46 5.986c1.641 1.642 3.634 2.463 5.978 2.463Z" fill="#8EC038"/></svg><svg viewBox="0 0 28 28" fill="none" id="sign-in" xmlns="http://www.w3.org/2000/svg"><path fill-rule="evenodd" clip-rule="evenodd" d="M14.41 8c-1.094 0-1.98.938-1.98 2.095 0 1.157.886 2.095 1.98 2.095 1.092 0 1.978-.938 1.978-2.095C16.388 8.938 15.502 8 14.41 8Zm-3.598 2.095c0-2.104 1.61-3.81 3.597-3.81 1.987 0 3.598 1.706 3.598 3.81s-1.61 3.81-3.598 3.81c-1.987 0-3.598-1.706-3.598-3.81ZM13.015 16.12c-1.862 0-3.373 1.598-3.373 3.57v.739c0 .473-.362.857-.809.857-.447 0-.81-.384-.81-.857v-.738c0-2.92 2.236-5.286 4.992-5.286h2.789c2.757 0 4.992 2.366 4.992 5.286v.738c0 .473-.363.857-.81.857-.447 0-.81-.384-.81-.857v-.738c0-1.973-1.51-3.572-3.372-3.572h-2.789Z" fill="#fff"/><circle cx="14" cy="14" r="13" stroke="#fff" stroke-width="2"/></svg><svg fill="none" viewBox="0 0 11 11" id="tel-phone" xmlns="http://www.w3.org/2000/svg"><path fill-rule="evenodd" clip-rule="evenodd" d="M6.407.37c-.148 0-.268.112-.268.251 0 .14.12.252.268.252 1.92 0 3.482 1.467 3.482 3.27 0 .14.12.252.268.252.148 0 .268-.112.268-.251C10.425 2.063 8.622.37 6.407.37ZM8.43 6.484l1.727 1.658c.357.343.357.9 0 1.243l-.432.415c-.71.68-2.2.637-3.192.453-.902-.167-2.641-.664-4.15-2.111a7.932 7.932 0 0 1-2.24-4.006C-.15 2.765.014 1.579.574 1.04l.432-.414a.945.945 0 0 1 1.296 0l1.727 1.657c.358.343.358.9 0 1.243l-.432.415a.855.855 0 0 0 0 1.243l1.81 1.712a.945.945 0 0 0 1.296.002l.432-.415a.943.943 0 0 1 1.296 0ZM1.87 1.041a.315.315 0 0 0-.432 0l-.215.206 2.159 2.072.215-.206c.119-.115.119-.3 0-.415L1.87 1.041ZM6.65 9.678c-.834-.155-2.44-.614-3.834-1.95a7.347 7.347 0 0 1-2.074-3.71C.512 2.945.607 2.139.832 1.7l2.14 2.054A1.424 1.424 0 0 0 3.167 5.6l1.809 1.713c.521.5 1.33.562 1.923.185L9.04 9.555c-.653.317-1.668.257-2.391.123Zm2.862-.501.215-.206a.285.285 0 0 0 0-.415L7.999 6.9a.314.314 0 0 0-.432 0l-.214.206 2.159 2.072ZM6.139 1.921c0-.125.11-.227.244-.227 1.483 0 2.689 1.118 2.689 2.492 0 .125-.11.226-.245.226s-.244-.101-.244-.226c0-1.124-.987-2.039-2.2-2.039-.135 0-.244-.101-.244-.226Zm.197 1.098c-.109 0-.197.08-.197.178 0 .098.088.178.197.178.544 0 .987.4.987.891 0 .099.089.179.198.179.109 0 .197-.08.197-.179 0-.688-.62-1.247-1.382-1.247ZM6.14 4.39c0-.026.025-.047.056-.047.093 0 .17.063.17.142 0 .026-.026.047-.057.047-.031 0-.056-.021-.056-.047s-.026-.048-.057-.048c-.031 0-.056-.02-.056-.047Z" fill="#fff"/></svg><svg viewBox="0 0 31 29" id="telegram" xmlns="http://www.w3.org/2000/svg"><path d="M30.21 1.045a2.307 2.307 0 0 0-2.332-.386L1.456 11.01a2.26 2.26 0 0 0-1.445 2.327 2.281 2.281 0 0 0 1.832 2.042l6.712 1.328v8.366a2.28 2.28 0 0 0 1.417 2.113c.278.111.574.17.873.171a2.264 2.264 0 0 0 1.618-.67l3.721-3.698 5.625 4.94c.415.365.95.568 1.503.57.243.006.486-.033.716-.114a2.277 2.277 0 0 0 1.531-1.656l5.382-23.443a2.28 2.28 0 0 0-.73-2.241ZM9.43 14.55 2.3 13.137 22.28 5.3 9.43 14.551Zm1.416 10.522v-6.767l3.607 3.17-3.607 3.597Zm12.481 1.142-11.793-10.35L28.522 3.628l-5.196 22.586Z" fill="#fff"/></svg><svg viewBox="0 0 20 18" id="telegram-icon" xmlns="http://www.w3.org/2000/svg"><path d="M19.49.35a1.491 1.491 0 0 0-1.504-.248L.94 6.757a1.457 1.457 0 0 0-.721.59c-.169.271-.243.59-.212.906.028.316.158.615.37.852.214.236.499.398.812.46l4.33.854v5.378a1.462 1.462 0 0 0 .915 1.358c.179.072.37.11.563.11a1.466 1.466 0 0 0 1.044-.43l2.4-2.378 3.63 3.176a1.482 1.482 0 0 0 1.43.293 1.47 1.47 0 0 0 .989-1.064l3.472-15.07A1.46 1.46 0 0 0 19.49.35ZM6.084 9.033l-4.599-.909 12.891-5.039-8.292 5.948Zm.914 6.764v-4.35l2.327 2.037-2.327 2.313Zm8.052.734L7.44 9.877l10.961-7.865-3.352 14.52Z" fill="#fff"/></svg><svg fill="none" viewBox="0 0 31 35" id="tomato" xmlns="http://www.w3.org/2000/svg"><g fill="#000"><path d="M28.782 13.897a14.728 14.728 0 0 0-3.925-4.483c1.355-1.28 1.868-2.802 1.893-2.876a.69.69 0 0 0-.35-.838.656.656 0 0 0-.85.27c-.064.11-.527.834-1.558.834-.358 0-.785-.087-1.287-.318-2.547-1.172-5.243-.723-5.732-.627h-.385C16.015 4.439 14.223.42 12.21.039c-.725-.14-1.346.102-1.704.661-.436.682-.475 1.992.294 3.179.285.438.64 1.061 1.047 1.83-1.138-.058-2.82.03-4.444.777-1.948.895-2.759-.368-2.845-.515a.655.655 0 0 0-.838-.276.69.69 0 0 0-.368.823c.024.081.536 1.788 1.898 3.244a14.68 14.68 0 0 0-3.641 4.42A13.575 13.575 0 0 0 0 20.616C0 24.47 1.596 28.09 4.496 30.81 7.378 33.512 11.206 35 15.273 35c4.069 0 7.896-1.488 10.778-4.191 2.9-2.719 4.496-6.34 4.496-10.194 0-2.34-.61-4.663-1.765-6.718ZM7.944 7.734c1.828-.841 3.813-.694 4.612-.584l.071.168v.002l.736 1.736a.656.656 0 0 0 .868.356.69.69 0 0 0 .354-.89 97.091 97.091 0 0 0-.976-2.302c-.683-1.367-1.257-2.41-1.706-3.1-.423-.652-.453-1.41-.289-1.668.024-.036.079-.122.354-.07.908.173 2.501 2.598 3.552 5.406.1.264.345.438.62.438h.898a.674.674 0 0 0 .14-.015c.013-.003.69-.145 1.66-.145.944 0 2.167.135 3.325.668.79.364 1.47.468 2.035.433-.237.252-.512.499-.826.72-1.378.969-3.104 1.16-5.13.57a.652.652 0 0 0-.684.21.702.702 0 0 0-.105.726c.102.233.285.42.562.702.51.517 1.35 1.371 1.781 2.79-.667-.291-1.3-.33-1.754-.36-.217-.013-.44-.027-.537-.063l-.065-.023c-1.497-.544-1.72-1.038-1.72-1.284a.68.68 0 0 0-.67-.684.674.674 0 0 0-.664.684c0 .587-1.68 1.654-2.367 1.907-.08.03-.162.056-.248.086-.385.128-.847.282-1.388.638.463-1.429 1.279-2.414 1.783-3.022.24-.292.4-.484.487-.684a.701.701 0 0 0-.105-.726.658.658 0 0 0-.683-.21c-2.043.596-3.78.307-5.162-.857A6.306 6.306 0 0 1 5.66 8.148c.623.087 1.382.001 2.284-.414 1.828-.841-.902.415 0 0Zm7.33 25.899c-7.69 0-13.946-5.84-13.946-13.018 0-3.864 1.798-7.463 4.95-9.947a6.18 6.18 0 0 0 3.157 1.125c.335.023.67.02 1.005-.003-.749 1.047-1.62 2.636-1.723 4.81a.685.685 0 0 0 .419.669.646.646 0 0 0 .552-.03l.061-.038a.702.702 0 0 0 .136-.125c.985-1.19 1.682-1.423 2.296-1.628.098-.033.191-.065.286-.099.022-.008 1.64-.678 2.583-1.724.631.624 1.546.957 1.948 1.103l.06.022c.274.1.579.12.902.14.715.045 1.525.096 2.261.986.184.223.486.3.75.193a.685.685 0 0 0 .42-.669c-.095-1.983-.834-3.348-1.535-4.259 1.05.076 2.118-.059 3.095-.474.27-.115.533-.247.784-.4a13.417 13.417 0 0 1 3.898 4.314 12.354 12.354 0 0 1 1.586 6.034c0 7.178-6.256 13.018-13.946 13.018Z"/><path d="M15.273 32.26c-6.81 0-12.351-5.224-12.351-11.644 0-.378.297-.684.664-.684.367 0 .664.306.664.684 0 5.666 4.945 10.277 11.023 10.277.367 0 .665.306.665.683a.674.674 0 0 1-.665.684ZM18.018 31.96a.674.674 0 0 1-.665-.684c0-.378.297-.684.664-.684.368 0 .665.306.665.684a.674.674 0 0 1-.664.683Z"/></g></svg><svg fill="none" viewBox="0 0 34 35" id="zit" xmlns="http://www.w3.org/2000/svg"><g fill="#000"><path d="M31.834 19.66a9.492 9.492 0 0 0-.902-.962 5.141 5.141 0 0 0 .834-2.817 5.2 5.2 0 0 0-.559-2.345.491.491 0 0 0-.672-.216.52.52 0 0 0-.21.691c.295.582.445 1.211.445 1.87 0 .798-.226 1.543-.616 2.17a9.293 9.293 0 0 0-.75-.503c.299-.483.472-1.054.472-1.667 0-1.72-1.36-3.12-3.032-3.12a2.94 2.94 0 0 0-1.369.337v-1.004a3.832 3.832 0 0 1 3.446.358.49.49 0 0 0 .687-.163.522.522 0 0 0-.159-.707 4.807 4.807 0 0 0-2.605-.768c-.475 0-.934.071-1.369.201V7.044c.894-.007 1.62-.758 1.62-1.68 0-.926-.732-1.68-1.631-1.68l.72-2.551a.899.899 0 0 0-.138-.779.845.845 0 0 0-.688-.354h-6.124a.845.845 0 0 0-.69.357.899.899 0 0 0-.134.783l.741 2.543h-1.955c-.314 0-.6.178-.745.465a.886.886 0 0 0 .054.896l.687 1.02a2.2 2.2 0 0 0 1.821.98h.224v8.111c0 .61-.42 1.13-1 1.236a9.133 9.133 0 0 0-4.323 2.082c-.302-2.195-.95-4.142-1.878-5.563a.697.697 0 0 0-.584-.32.697.697 0 0 0-.584.32c-1.315 2.014-2.07 5.082-2.07 8.419 0 .504.019 1.003.054 1.494a20.43 20.43 0 0 0-1.309-1.371.488.488 0 0 0-.704.026.524.524 0 0 0 .026.725 18.696 18.696 0 0 1 2.849 3.439c-.1.073-.195.151-.288.234a4.874 4.874 0 0 0-1-.399l-3.559-3.663a.488.488 0 0 0-.704 0 .523.523 0 0 0 0 .725l2.685 2.764a4.97 4.97 0 0 0-1.37.262 19.39 19.39 0 0 1-.44-.438c-1.976-2.034-3.422-4.417-3.945-6.473 1.252.338 2.66 1.06 4.015 2.064a.489.489 0 0 0 .695-.117c.161-.23.11-.55-.113-.715-1.657-1.228-3.334-2.038-4.851-2.344a.69.69 0 0 0-.633.199.737.737 0 0 0-.193.651c.219 1.147.72 2.425 1.45 3.694a19.079 19.079 0 0 0 2.87 3.766l.171.172c-1.289.795-2.143 2.164-2.143 3.717 0 2.45 2.123 4.444 4.733 4.444a4.898 4.898 0 0 0 2.994-1.007 4.784 4.784 0 0 0 2.891 1.005c.857 0 1.694-.252 2.398-.759a7.935 7.935 0 0 0 3.395.761h7.048c4.51 0 8.18-3.777 8.18-8.42 0-2.225-.77-4.393-2.166-6.106Zm-4.99-5.874c1.123 0 2.036.94 2.036 2.095 0 .444-.135.855-.365 1.194a8.963 8.963 0 0 0-2.055-.665c-.57-.111-.985-.63-.985-1.233v-.844c.362-.34.842-.547 1.37-.547Zm-7.427-12.76h5.76l-.75 2.658h-4.235l-.775-2.658ZM18.01 5.479l-.52-.77h7.972c.35 0 .636.294.636.655a.647.647 0 0 1-.636.655h-6.45c-.4 0-.775-.202-1.002-.54Zm-6.559 8.402c1.043 1.834 1.657 4.573 1.657 7.448a19.44 19.44 0 0 1-.324 3.578 4.459 4.459 0 0 0-.835-.041v-6.004a.506.506 0 0 0-.498-.512.506.506 0 0 0-.498.512v6.169a4.05 4.05 0 0 0-.362.125 18.26 18.26 0 0 0-.577-.857 19.76 19.76 0 0 1-.22-2.97c0-2.875.614-5.614 1.657-7.448ZM3.357 29.74c0-1.885 1.677-3.418 3.737-3.418a4 4 0 0 1 1.645.35c-1.116 1.693-.896 4.11.596 5.802-.625.43-1.4.685-2.241.685-2.06 0-3.737-1.534-3.737-3.419Zm6.856 2.198c-1.456-1.5-1.588-3.804-.294-5.137.58-.596 1.363-.918 2.224-.918.061 0 .123.001.185.004.952.051 1.87.483 2.582 1.216 1.457 1.5 1.589 3.805.294 5.138-1.295 1.333-3.534 1.197-4.99-.303Zm15.607 1.22h-7.048c-.915 0-1.79-.177-2.595-.5.146-.183.274-.377.385-.58.69.257 1.435.397 2.21.397h7.048c3.287 0 6.07-2.53 6.47-5.887a.51.51 0 0 0-.433-.572.501.501 0 0 0-.555.447c-.34 2.843-2.697 4.987-5.482 4.987h-7.048c-.643 0-1.26-.115-1.834-.324.417-1.58-.035-3.421-1.324-4.747a5.055 5.055 0 0 0-1.864-1.225c.163-.846.271-1.739.322-2.655.21-.392.459-.765.744-1.111a6.584 6.584 0 0 1 3.84-2.298l7.357.014a6.595 6.595 0 0 1 3.787 2.313 6.903 6.903 0 0 1 1.374 2.832c.062.276.33.447.598.383a.513.513 0 0 0 .372-.615 7.946 7.946 0 0 0-1.581-3.26c-1.133-1.389-2.7-2.337-4.41-2.669a.475.475 0 0 0-.092-.009l-7.448-.014c-.028.001-.058.002-.087.008-1.712.31-3.283 1.236-4.43 2.606-.01-.319-.026-.635-.05-.947A8.192 8.192 0 0 1 18.41 17.4c1.056-.191 1.823-1.136 1.823-2.245v-8.11h4.246v8.132c0 1.096.756 2.038 1.797 2.24 1.86.361 3.564 1.392 4.795 2.902a8.637 8.637 0 0 1 1.933 5.446c0 4.077-3.223 7.395-7.184 7.395Z"/><path d="M4.599 28.762a.506.506 0 0 0-.498.512v.934c0 .284.223.513.498.513s.498-.23.498-.513v-.934a.505.505 0 0 0-.498-.512ZM10.766 27.012l-.642.661a.523.523 0 0 0 0 .725.49.49 0 0 0 .705 0l.641-.66a.523.523 0 0 0 0-.726.488.488 0 0 0-.704 0Z"/></g></svg></svg>