<svg viewBox="0 0 25 25" xmlns="http://www.w3.org/2000/svg">
	<g id="material-symbols:arrow-back-ios-new-rounded">
		<path id="Vector"
			d="M9.24461 3.02092L18.0207 11.7709C18.1248 11.8751 18.1988 11.9879 18.2425 12.1095C18.2863 12.231 18.3078 12.3612 18.3071 12.5001C18.3071 12.639 18.2856 12.7692 18.2425 12.8907C18.1995 13.0122 18.1255 13.1251 18.0207 13.2292L9.24461 22.0053C9.00156 22.2483 8.69774 22.3699 8.33315 22.3699C7.96857 22.3699 7.65607 22.2397 7.39565 21.9792C7.13524 21.7188 7.00503 21.415 7.00503 21.0678C7.00503 20.7206 7.13524 20.4167 7.39565 20.1563L15.0519 12.5001L7.39566 4.84383C7.1526 4.60078 7.03107 4.30113 7.03107 3.94487C7.03107 3.58863 7.16128 3.28064 7.4217 3.02092C7.68211 2.7605 7.98593 2.63029 8.33316 2.63029C8.68038 2.63029 8.9842 2.7605 9.24461 3.02092Z" />
	</g>
</svg>