<svg  viewBox="0 0 72 72"  xmlns="http://www.w3.org/2000/svg">
<g id="Group 88">
<circle id="Ellipse 16" cx="36" cy="36" r="36" fill="white" fill-opacity="0.8"/>
<path id="Vector" d="M36 5C29.8688 5 23.8753 6.81812 18.7773 10.2244C13.6794 13.6308 9.70606 18.4723 7.35975 24.1368C5.01343 29.8013 4.39953 36.0344 5.59567 42.0478C6.79181 48.0612 9.74428 53.5849 14.0797 57.9203C18.4151 62.2557 23.9388 65.2082 29.9522 66.4043C35.9656 67.6005 42.1987 66.9866 47.8632 64.6403C53.5277 62.2939 58.3692 58.3206 61.7756 53.2227C65.1819 48.1247 67 42.1312 67 36C66.9836 27.7833 63.7123 19.9079 57.9022 14.0978C52.0921 8.28771 44.2167 5.01638 36 5ZM36 64.52C30.3593 64.52 24.8452 62.8473 20.1551 59.7135C15.4651 56.5797 11.8096 52.1255 9.65097 46.9141C7.49236 41.7028 6.92757 35.9684 8.02802 30.436C9.12847 24.9037 11.8447 19.8219 15.8333 15.8333C19.8219 11.8447 24.9037 9.12845 30.436 8.028C35.9684 6.92755 41.7028 7.49234 46.9141 9.65095C52.1255 11.8096 56.5797 15.465 59.7135 20.1551C62.8473 24.8452 64.52 30.3593 64.52 36C64.5118 43.5614 61.5044 50.8109 56.1576 56.1576C50.8109 61.5044 43.5615 64.5118 36 64.52ZM49.64 36C49.64 36.3289 49.5094 36.6443 49.2768 36.8768C49.0443 37.1094 48.7289 37.24 48.4 37.24L26.607 37.24L35.008 45.641C35.2302 45.8815 35.3536 46.197 35.3536 46.5245C35.3536 46.852 35.2302 47.1674 35.008 47.408C34.8895 47.5233 34.7485 47.6131 34.5939 47.6717C34.4392 47.7304 34.2742 47.7567 34.109 47.749C33.9487 47.7542 33.7891 47.7267 33.6398 47.668C33.4906 47.6094 33.3549 47.5209 33.241 47.408L22.732 36.868C22.6158 36.7553 22.5233 36.6204 22.4602 36.4713C22.3971 36.3222 22.3646 36.1619 22.3646 36C22.3646 35.8381 22.3971 35.6778 22.4602 35.5287C22.5233 35.3796 22.6158 35.2447 22.732 35.132L33.241 24.592C33.4753 24.3577 33.7931 24.226 34.1245 24.226C34.4559 24.226 34.7737 24.3577 35.008 24.592C35.2423 24.8263 35.374 25.1441 35.374 25.4755C35.374 25.8069 35.2423 26.1247 35.008 26.359L26.607 34.76L48.4 34.76C48.7289 34.76 49.0443 34.8906 49.2768 35.1232C49.5094 35.3557 49.64 35.6711 49.64 36Z" />
</g>
</svg>
