<svg  viewBox="0 0 48 48"  xmlns="http://www.w3.org/2000/svg">
<path d="M24 42.75C27.7084 42.75 31.3335 41.6503 34.4169 39.5901C37.5004 37.5298 39.9036 34.6014 41.3227 31.1753C42.7419 27.7492 43.1132 23.9792 42.3897 20.3421C41.6662 16.7049 39.8805 13.364 37.2582 10.7417C34.636 8.11951 31.2951 6.33375 27.6579 5.61027C24.0208 4.8868 20.2508 5.25811 16.8247 6.67725C13.3986 8.09639 10.4702 10.4996 8.40994 13.5831C6.34966 16.6665 5.24999 20.2916 5.24999 24C5.2599 28.9698 7.23852 33.7331 10.7527 37.2473C14.2668 40.7615 19.0302 42.7401 24 42.75ZM24 6.74999C27.4117 6.74999 30.7468 7.76169 33.5836 9.65715C36.4203 11.5526 38.6313 14.2467 39.9369 17.3987C41.2425 20.5507 41.5841 24.0191 40.9185 27.3653C40.2529 30.7115 38.61 33.7851 36.1976 36.1976C33.7851 38.61 30.7115 40.2529 27.3653 40.9185C24.0191 41.5841 20.5507 41.2425 17.3987 39.9369C14.2467 38.6313 11.5526 36.4203 9.65714 33.5836C7.76169 30.7468 6.74999 27.4117 6.74999 24C6.75495 19.4265 8.57395 15.0418 11.8079 11.8079C15.0418 8.57396 19.4265 6.75496 24 6.74999ZM15.75 24C15.75 23.8011 15.829 23.6103 15.9697 23.4697C16.1103 23.329 16.3011 23.25 16.5 23.25L29.6812 23.25L24.6 18.1687C24.4656 18.0233 24.3909 17.8324 24.3909 17.6344C24.3909 17.4363 24.4656 17.2455 24.6 17.1C24.6717 17.0303 24.757 16.976 24.8505 16.9405C24.944 16.905 25.0438 16.8891 25.1437 16.8937C25.2407 16.8906 25.3372 16.9072 25.4275 16.9427C25.5178 16.9782 25.5999 17.0317 25.6687 17.1L32.025 23.475C32.0953 23.5432 32.1512 23.6248 32.1894 23.7149C32.2276 23.8051 32.2472 23.9021 32.2472 24C32.2472 24.0979 32.2276 24.1949 32.1894 24.285C32.1512 24.3752 32.0953 24.4568 32.025 24.525L25.6687 30.9C25.527 31.0417 25.3348 31.1213 25.1344 31.1213C24.9339 31.1213 24.7417 31.0417 24.6 30.9C24.4583 30.7583 24.3786 30.5661 24.3786 30.3656C24.3786 30.1652 24.4583 29.973 24.6 29.8312L29.6812 24.75L16.5 24.75C16.3011 24.75 16.1103 24.671 15.9697 24.5303C15.829 24.3897 15.75 24.1989 15.75 24Z" />
</svg>
