<svg width="72" height="72" viewBox="0 0 72 72"  xmlns="http://www.w3.org/2000/svg">
<g id="Group 87">
<circle id="Ellipse 16" cx="36" cy="36" r="36" transform="rotate(-180 36 36)" fill="white" fill-opacity="0.8"/>
<path id="Vector" d="M36 67C42.1312 67 48.1247 65.1819 53.2227 61.7756C58.3206 58.3692 62.2939 53.5277 64.6403 47.8632C66.9866 42.1987 67.6005 35.9656 66.4043 29.9522C65.2082 23.9388 62.2557 18.4151 57.9203 14.0797C53.5849 9.74427 48.0612 6.79181 42.0478 5.59567C36.0344 4.39953 29.8013 5.01342 24.1368 7.35974C18.4723 9.70606 13.6308 13.6794 10.2244 18.7773C6.81812 23.8753 5 29.8688 5 36C5.01638 44.2167 8.28771 52.0921 14.0978 57.9022C19.9079 63.7123 27.7833 66.9836 36 67ZM36 7.48001C41.6407 7.48001 47.1548 9.15268 51.8449 12.2865C56.5349 15.4203 60.1904 19.8745 62.349 25.0859C64.5076 30.2972 65.0724 36.0316 63.972 41.564C62.8715 47.0963 60.1553 52.1781 56.1667 56.1667C52.1781 60.1553 47.0963 62.8715 41.564 63.972C36.0316 65.0724 30.2972 64.5077 25.0859 62.349C19.8745 60.1904 15.4203 56.535 12.2865 51.8449C9.15267 47.1548 7.48 41.6407 7.48 36C7.4882 28.4385 10.4956 21.1891 15.8424 15.8424C21.1891 10.4956 28.4385 7.48821 36 7.48001ZM22.36 36C22.36 35.6711 22.4906 35.3557 22.7232 35.1232C22.9557 34.8906 23.2711 34.76 23.6 34.76L45.393 34.76L36.992 26.359C36.7698 26.1185 36.6464 25.803 36.6464 25.4755C36.6464 25.148 36.7698 24.8326 36.992 24.592C37.1106 24.4767 37.2515 24.3869 37.4061 24.3283C37.5608 24.2696 37.7258 24.2433 37.891 24.251C38.0513 24.2458 38.2109 24.2733 38.3602 24.332C38.5094 24.3906 38.6451 24.4791 38.759 24.592L49.268 35.132C49.3842 35.2447 49.4767 35.3796 49.5398 35.5287C49.6029 35.6778 49.6354 35.8381 49.6354 36C49.6354 36.1619 49.6029 36.3222 49.5398 36.4713C49.4767 36.6204 49.3842 36.7553 49.268 36.868L38.759 47.408C38.5247 47.6423 38.2069 47.774 37.8755 47.774C37.5441 47.774 37.2263 47.6423 36.992 47.408C36.7577 47.1737 36.626 46.8559 36.626 46.5245C36.626 46.1931 36.7577 45.8753 36.992 45.641L45.393 37.24L23.6 37.24C23.2711 37.24 22.9557 37.1094 22.7232 36.8768C22.4906 36.6443 22.36 36.3289 22.36 36Z" />
</g>
</svg>
