<svg xmlns="http://www.w3.org/2000/svg" viewBox="0 0 48 51">
	<path
	fill="#fff"
		d="M13.451 17.304a.89.89 0 0 0-.634.267.918.918 0 0 0-.263.643v1.822h-1.793a.89.89 0 0 0-.634.267.918.918 0 0 0 0 1.288.89.89 0 0 0 .634.266h2.69a.89.89 0 0 0 .634-.266.918.918 0 0 0 .263-.644v-2.733a.918.918 0 0 0-.263-.643.89.89 0 0 0-.634-.267Zm0 6.375H9.864a.89.89 0 0 0-.634.267.918.918 0 0 0-.262.643v3.643c0 .242.094.474.262.644a.89.89 0 0 0 .634.267h3.587a.89.89 0 0 0 .634-.267.918.918 0 0 0 .263-.644V24.59a.918.918 0 0 0-.263-.643.89.89 0 0 0-.634-.267Zm-.896 3.643H10.76V25.5h1.794v1.822Zm.896 3.642H9.864a.89.89 0 0 0-.634.267.918.918 0 0 0-.262.644v3.643c0 .242.094.473.262.644a.89.89 0 0 0 .634.267h3.587a.89.89 0 0 0 .634-.267.918.918 0 0 0 .263-.644v-3.643a.918.918 0 0 0-.263-.644.89.89 0 0 0-.634-.267Zm-.896 3.643H10.76v-1.821h1.794v1.821Zm.896 3.643H9.864a.89.89 0 0 0-.634.267.918.918 0 0 0-.262.644v3.643a.92.92 0 0 0 .262.644.89.89 0 0 0 .634.266h3.587a.89.89 0 0 0 .634-.266.918.918 0 0 0 .263-.644V39.16a.918.918 0 0 0-.263-.644.89.89 0 0 0-.634-.267Zm-.896 3.643H10.76V40.07h1.794v1.822Zm13.449-23.679h-8.07a.89.89 0 0 0-.634.267.918.918 0 0 0 0 1.288.89.89 0 0 0 .634.267h8.07a.89.89 0 0 0 .634-.267.918.918 0 0 0 0-1.288.89.89 0 0 0-.634-.267Zm0 7.286h-8.07a.89.89 0 0 0-.634.266.918.918 0 0 0 0 1.288.89.89 0 0 0 .634.267h8.07a.89.89 0 0 0 .634-.267.918.918 0 0 0 0-1.288.89.89 0 0 0-.634-.266Zm-1.794 7.286h-6.276a.89.89 0 0 0-.634.266.918.918 0 0 0 0 1.288.89.89 0 0 0 .634.267h6.277a.89.89 0 0 0 .634-.267.918.918 0 0 0 0-1.288.89.89 0 0 0-.634-.266Zm0 7.285h-6.276a.89.89 0 0 0-.634.267.918.918 0 0 0 0 1.288.89.89 0 0 0 .634.267h6.277a.89.89 0 0 0 .634-.267.918.918 0 0 0 0-1.288.89.89 0 0 0-.634-.267Z" />
	<path
	fill="#fff"
		d="M47.196 34.143a5.585 5.585 0 0 0-1.39-2.442 5.461 5.461 0 0 0-2.39-1.435 5.409 5.409 0 0 0 2.336-2.65l.72-1.739a.924.924 0 0 0 .003-.697.904.904 0 0 0-.483-.495l-1.712-.731a5.304 5.304 0 0 0-4.118-.022 5.422 5.422 0 0 0-2.926 2.942l-.054.13a8.124 8.124 0 0 0-.998-1.237.892.892 0 0 0-.316-.207V9.107a3.676 3.676 0 0 0-1.052-2.575 3.563 3.563 0 0 0-2.535-1.068H22.194a.668.668 0 0 1-.476-.2.69.69 0 0 1-.197-.483V3.704a3.804 3.804 0 0 0-.29-1.443 3.757 3.757 0 0 0-.814-1.219A3.54 3.54 0 0 0 19.245.26a3.496 3.496 0 0 0-1.38-.26 3.579 3.579 0 0 0-2.486 1.097 3.69 3.69 0 0 0-1.032 2.546V4.78a.69.69 0 0 1-.197.483.668.668 0 0 1-.475.2H3.587a3.563 3.563 0 0 0-2.535 1.068A3.676 3.676 0 0 0 0 9.107v38.25c.001.966.38 1.892 1.052 2.575A3.563 3.563 0 0 0 3.587 51H32.28c.279 0 .556-.034.827-.1.74.16 1.506.127 2.23-.092a4.518 4.518 0 0 0 1.916-1.163l.088-.089.088.09c.422.43.924.772 1.477 1.004a4.464 4.464 0 0 0 1.744.35 4.523 4.523 0 0 0 2.243-.604 4.611 4.611 0 0 0 1.663-1.642l.85-1.437a17.198 17.198 0 0 0 2.213-6.403 17.28 17.28 0 0 0-.424-6.771Zm-8.307-6.563a3.64 3.64 0 0 1 .783-1.178 3.583 3.583 0 0 1 1.168-.783 3.54 3.54 0 0 1 2.745.014l.886.378-.373.9a3.646 3.646 0 0 1-.783 1.177 3.583 3.583 0 0 1-1.168.784 3.54 3.54 0 0 1-2.745-.015l-.886-.378.373-.9Zm-.182 2.956c.188.08.38.15.577.207-.267.15-.521.323-.76.517a8.266 8.266 0 0 0-.067-.83l.25.106Zm-1.98 1.247-.103-.104a5.552 5.552 0 0 0-.756-.64v-2.737a6.365 6.365 0 0 1 .858 3.48ZM34.074 9.107v21.108a5.42 5.42 0 0 0-1.794-.14V10.018a.918.918 0 0 0-.262-.644.89.89 0 0 0-.634-.267H26.9a3.67 3.67 0 0 0-.482-1.821h5.862c.476 0 .932.192 1.268.534.336.341.525.804.526 1.287Zm-5.709 36.429H5.38V10.928h4.07a3.616 3.616 0 0 0 1.312 1.333c.545.32 1.163.488 1.792.489h10.76c.63 0 1.248-.17 1.793-.489.545-.32.997-.78 1.312-1.333h4.069V30.56a5.483 5.483 0 0 0-1.891 1.453 5.587 5.587 0 0 0-1.108 2.13 17.28 17.28 0 0 0 .877 11.393ZM16.141 4.78V3.643c.002-.477.187-.933.515-1.274a1.79 1.79 0 0 1 1.243-.548 1.717 1.717 0 0 1 1.262.52 1.922 1.922 0 0 1 .566 1.363v1.077c.001.664.261 1.3.724 1.77a2.45 2.45 0 0 0 1.742.735h1.121c.476 0 .932.191 1.268.533a1.84 1.84 0 0 1 0 2.576 1.78 1.78 0 0 1-1.268.533h-10.76a1.78 1.78 0 0 1-1.268-.533 1.836 1.836 0 0 1-.525-1.288c0-.483.188-.946.525-1.288a1.78 1.78 0 0 1 1.268-.533h1.12a2.45 2.45 0 0 0 1.744-.735 2.53 2.53 0 0 0 .723-1.77ZM1.793 47.357V9.107a1.84 1.84 0 0 1 .526-1.287 1.782 1.782 0 0 1 1.268-.534H9.45a3.664 3.664 0 0 0-.483 1.821H4.484a.89.89 0 0 0-.635.267.918.918 0 0 0-.262.644v36.428c0 .242.094.474.262.644a.89.89 0 0 0 .635.267h24.818l.825 1.397c.088.147.184.288.287.425H3.587a1.784 1.784 0 0 1-1.268-.535 1.838 1.838 0 0 1-.526-1.287Zm42.075-.978-.849 1.438a2.796 2.796 0 0 1-1.008.996 2.742 2.742 0 0 1-1.36.365 2.705 2.705 0 0 1-1.057-.211 2.74 2.74 0 0 1-.896-.61l-.721-.733a.896.896 0 0 0-.635-.267.886.886 0 0 0-.634.267l-.722.733a2.705 2.705 0 0 1-1.953.822 2.742 2.742 0 0 1-1.36-.366 2.796 2.796 0 0 1-1.008-.996l-.85-1.438a15.346 15.346 0 0 1-1.975-5.713 15.418 15.418 0 0 1 .38-6.044 3.73 3.73 0 0 1 .954-1.664A3.657 3.657 0 0 1 31.818 32a3.616 3.616 0 0 1 1.896.003c.621.17 1.187.502 1.642.964l1.352 1.373a.897.897 0 0 0 .634.267.885.885 0 0 0 .635-.267l1.352-1.373a3.659 3.659 0 0 1 1.641-.964A3.619 3.619 0 0 1 42.866 32a3.658 3.658 0 0 1 1.645.958 3.74 3.74 0 0 1 .954 1.664c.525 1.968.654 4.024.38 6.044a15.348 15.348 0 0 1-1.977 5.713Z" />
	<path
	fill="#fff"
		d="M43.233 41.926a.883.883 0 0 0-.945.32.916.916 0 0 0-.157.317 17.43 17.43 0 0 1-.258.864.925.925 0 0 0 .26.981.893.893 0 0 0 .654.222.886.886 0 0 0 .616-.316.913.913 0 0 0 .172-.311c.103-.316.2-.638.286-.958a.924.924 0 0 0-.315-.96.89.89 0 0 0-.313-.16Zm.387-5.497a.89.89 0 0 0-.634.267.918.918 0 0 0-.263.643v.763c0 .624-.034 1.248-.102 1.868a.924.924 0 0 0 .186.676.9.9 0 0 0 .604.341.884.884 0 0 0 .664-.197.908.908 0 0 0 .328-.618c.076-.687.114-1.378.114-2.07v-.763a.918.918 0 0 0-.263-.643.89.89 0 0 0-.634-.267ZM12.816 14.838l-2.953 2.999-.263-.267a.894.894 0 0 0-.634-.267.884.884 0 0 0-.634.267.912.912 0 0 0-.263.644.923.923 0 0 0 .263.644l.897.91a.896.896 0 0 0 .634.268.884.884 0 0 0 .634-.267l3.587-3.643a.918.918 0 0 0 0-1.288.89.89 0 0 0-1.268 0Z" />
</svg>