<svg xmlns="http://www.w3.org/2000/svg" width="42" height="56" fill="none" viewBox="0 0 42 56">
  <path fill="#fff" d="M34.194 13.263a.909.909 0 0 1-.588-.206.858.858 0 0 1-.304-.529A16.94 16.94 0 0 1 35.194 1.73H9.026a17.17 17.17 0 0 1 2.088 8.646c0 .23-.094.45-.261.612a.907.907 0 0 1-.631.253.907.907 0 0 1-.631-.253.851.851 0 0 1-.261-.612 16.048 16.048 0 0 0-2.58-9.079.844.844 0 0 1 0-.862.879.879 0 0 1 .324-.317A.914.914 0 0 1 7.52 0h29.165c.157 0 .311.04.448.115.136.076.25.185.328.317a.844.844 0 0 1 0 .865 15.787 15.787 0 0 0-2.382 10.972.84.84 0 0 1-.164.643.882.882 0 0 1-.586.342l-.134.01Zm1.54 42H22.91a.908.908 0 0 1-.594-.212.89.89 0 0 1-.308-.546 30.69 30.69 0 0 1 .532-10.836 7.75 7.75 0 0 1-3.039 0 31.21 31.21 0 0 1 .532 10.836.89.89 0 0 1-.307.546.908.908 0 0 1-.595.212H6.251a.91.91 0 0 1-.776-.446c-9.217-15.84-4.843-25.57-.992-34.149.361-.811.722-1.614 1.065-2.408a.89.89 0 0 1 .489-.504.91.91 0 0 1 1.003.201.89.89 0 0 1 .167.999c-.343.803-.703 1.614-1.073 2.435-3.824 8.508-7.775 17.302.65 32.106h11.57a32.766 32.766 0 0 0-.946-10.952.883.883 0 0 1 .305-.895.907.907 0 0 1 .948-.121 5.747 5.747 0 0 0 4.726 0 .911.911 0 0 1 .956.124.892.892 0 0 1 .298.892 30.996 30.996 0 0 0-.92 10.934h11.49c8.46-14.795 4.357-23.937 1.056-31.295a.885.885 0 0 1-.02-.684.898.898 0 0 1 .475-.497.914.914 0 0 1 .692-.02.9.9 0 0 1 .503.47c3.31 7.393 7.856 17.525-1.398 33.364a.897.897 0 0 1-.785.446Z"/>
  <path fill="#fff" d="M22.114 44.21a7.405 7.405 0 0 1-3.06-.652.881.881 0 0 1-.37-.313c-3.493-5.22-8.843-8.823-15.828-10.737a.883.883 0 0 1-.515-.384.858.858 0 0 1-.113-.626 28.066 28.066 0 0 1 1.318-4.41.876.876 0 0 1 .448-.476.898.898 0 0 1 .657-.038 55.483 55.483 0 0 0 34.882 0 .897.897 0 0 1 .662.034c.208.096.37.268.452.48a29.344 29.344 0 0 1 1.335 4.41.858.858 0 0 1-.113.634.883.883 0 0 1-.524.385c-7.073 1.905-12.379 5.516-15.818 10.728a.986.986 0 0 1-.372.313 7.43 7.43 0 0 1-3.041.653Zm-2.105-2.14c1.347.54 2.854.54 4.2 0 3.537-5.22 8.842-8.953 15.916-11.007-.203-.87-.469-1.688-.778-2.61a57.282 57.282 0 0 1-34.378 0c-.318.87-.574 1.74-.787 2.61 6.915 2.054 12.255 5.752 15.845 11.007h-.018Zm18.897-17.754H23.108c-11.911 0-20.897-3.537-20.897-8.267V5.305a.885.885 0 1 1 1.767 0c0 3.077 7.855 6.5 19.13 6.5h15.798a.883.883 0 0 1 .884.883v10.744a.884.884 0 0 1-.884.884ZM3.978 8.736v7.313c0 3.068 7.855 6.498 19.13 6.498h14.915v-8.992H23.108c-8.765 0-15.949-1.919-19.13-4.819Z"/>
  <path fill="#fff" d="M32.053 24.316a1.21 1.21 0 0 1-.782-.274.867.867 0 0 1-.324-.66v-4.764c0-.247.117-.485.324-.66.207-.175.488-.274.782-.274.293 0 .574.099.781.274a.868.868 0 0 1 .324.66v4.764a.867.867 0 0 1-.324.66 1.216 1.216 0 0 1-.782.274Zm-4.421 0c-.294 0-.575-.091-.782-.254-.207-.162-.324-.382-.324-.612v-4.9c0-.23.117-.45.324-.612.207-.162.488-.254.782-.254.293 0 .574.091.781.254.207.162.324.383.324.612v4.9c0 .23-.117.45-.324.612a1.277 1.277 0 0 1-.781.254Zm-6.632 0c-.293 0-.575-.114-.782-.317a1.069 1.069 0 0 1-.323-.764v-6.68c0-.287.116-.562.323-.765a1.121 1.121 0 0 1 1.563 0c.208.203.324.478.324.765v6.68c0 .287-.116.561-.324.764a1.117 1.117 0 0 1-.781.317Zm-4.421-2.211c-.293 0-.574-.085-.782-.238-.207-.153-.323-.36-.323-.576v-5.004c0-.215.116-.422.323-.575.208-.153.489-.238.782-.238.293 0 .574.085.781.238.208.153.324.36.324.575v5.005c0 .215-.116.422-.324.575a1.332 1.332 0 0 1-.781.238Zm-6.632 0c-.293 0-.574-.096-.781-.267a.84.84 0 0 1-.324-.645v-4.807a.84.84 0 0 1 .324-.645c.207-.171.488-.267.781-.267.293 0 .574.096.782.267a.84.84 0 0 1 .323.645v4.807a.84.84 0 0 1-.323.645 1.234 1.234 0 0 1-.782.267Z"/>
</svg>
