<svg width="15" height="16" viewBox="0 0 15 16" fill="none" xmlns="http://www.w3.org/2000/svg">
<g id="mdi-light:email">
<path id="Vector" d="M3.125 3.34424H11.25C11.7473 3.34424 12.2242 3.54178 12.5758 3.89341C12.9275 4.24504 13.125 4.72196 13.125 5.21924V10.8442C13.125 11.3415 12.9275 11.8184 12.5758 12.1701C12.2242 12.5217 11.7473 12.7192 11.25 12.7192H3.125C2.62772 12.7192 2.15081 12.5217 1.79917 12.1701C1.44754 11.8184 1.25 11.3415 1.25 10.8442V5.21924C1.25 4.72196 1.44754 4.24504 1.79917 3.89341C2.15081 3.54178 2.62772 3.34424 3.125 3.34424ZM3.125 3.96924C2.8125 3.96924 2.5375 4.07549 2.325 4.26299L7.1875 7.40674L12.05 4.26299C11.8375 4.07549 11.5625 3.96924 11.25 3.96924H3.125ZM7.1875 8.16299L1.95625 4.76924C1.90625 4.90674 1.875 5.06299 1.875 5.21924V10.8442C1.875 11.1758 2.0067 11.4937 2.24112 11.7281C2.47554 11.9625 2.79348 12.0942 3.125 12.0942H11.25C11.5815 12.0942 11.8995 11.9625 12.1339 11.7281C12.3683 11.4937 12.5 11.1758 12.5 10.8442V5.21924C12.5 5.06299 12.4688 4.90674 12.4188 4.76924L7.1875 8.16299Z" fill="white"/>
</g>
</svg>
