<svg xmlns="http://www.w3.org/2000/svg" width="52" height="49" fill="none" viewBox="0 0 52 49">
	<path fill="#fff"
		d="m47.768 38.582-.566-.13c5.483-4.512 6.651-14.53 1.487-19.75-1.987-2.008-3.174-5.186-3.174-8.501 0-4.805-3.147-8.715-7.016-8.715-3.868 0-7.016 3.91-7.016 8.715 0 1.092-.128 2.168-.373 3.192-3.604-4.179-9.328-4.658-13.155-1.987V1.605a.768.768 0 0 0-.765-.77.768.768 0 0 0-.767.77v3.021C14.136.48 9.973-.629 5.31.314a.771.771 0 0 0-.558 1.046c.043.105 1.075 2.603 3.068 4.79 2.36 2.59 5.288 3.876 8.603 2.954v2.303c-4.499-3.14-12.032-2.013-15.127 5.147a.77.77 0 0 0 .398 1.012.764.764 0 0 0 1.007-.4c2.833-6.551 9.605-7.08 13.197-4.239a2 2 0 0 0 2.582 0c4.09-3.235 11.164-1.827 13.588 5.252 1.303 3.813 1.042 7.8-1.22 11.924-.9 1.617-1.64 2.96-2.25 4.08-4.744-1.026-5.421-1.402-7.036-1.367a.766.766 0 0 0-.75.784.765.765 0 0 0 .782.754c.277-.006.593.009.926.05l-.46 4.144a.767.767 0 1 0 1.523.17l.444-4.006c3.06.701 5.052 1.159 7.425 1.704l-.22 1.976a.767.767 0 1 0 1.523.17l.2-1.801 11.482 2.635-.591 5.335a.767.767 0 1 0 1.523.17l.572-5.16 1.486.341a3.692 3.692 0 0 1 2.85 4.03 3.7 3.7 0 0 1-3.665 3.3l-7.84.016.278-2.51a.767.767 0 1 0-1.523-.17l-.297 2.683-7.515.014.261-2.358a.767.767 0 1 0-1.523-.17l-.28 2.532-3.598.006.456-4.105a.766.766 0 1 0-1.523-.17l-.475 4.279h-.027l-1.27.002c-3.006 0-5.584-2.06-6.316-4.907-.752-2.908.564-6.155 3.527-7.57a.77.77 0 0 0 .364-1.025.764.764 0 0 0-1.02-.365 8.05 8.05 0 0 0-3.5 3.207c-1.55-.777-3.324-1.998-4.27-3.798-1.222-2.332-4.748-1.456-4.76 1.177l-2.4-4.383c-1.645-3.003-2.248-6.373-1.532-9.852a.766.766 0 1 0-1.5-.312c-.768 3.733-.185 7.483 1.69 10.906l3.272 5.975-2.398-.269a2.528 2.528 0 0 0-2.791 2.242 2.538 2.538 0 0 0 2.23 2.803l3.972.444c-.985.885-1.778 1.688-1.678 2.954.172 2.237 2.974 3.17 4.438 1.451 1.206-1.416 3.089-2.291 4.998-2.764C15.1 46.634 18.148 49 21.737 49l24.877-.048c2.896-.006 5.219-2.363 5.219-5.255a5.218 5.218 0 0 0-4.065-5.115ZM6.588 1.656c5.094-.699 8.306 1.74 9.379 5.977-4.15 1.123-7.414-2.173-9.379-5.977Zm38.616 36.337L30.157 34.54c.434-.8.917-1.683 1.454-2.655 1.419 2.455 4.064 4.109 7.086 4.109 3.889 0 7.264-2.776 8.026-6.601a.765.765 0 1 0-1.502-.302c-.62 3.108-3.363 5.364-6.524 5.364-2.798 0-5.199-1.745-6.18-4.209 1.273-2.433 1.882-5.004 1.862-7.555 3.843-3.301 9.77-1.219 10.82 3.659a.765.765 0 1 0 1.497-.326 8.256 8.256 0 0 0-2.827-4.626 8.152 8.152 0 0 0-9.612-.53c-.255-2.023-.924-4.13-1.993-5.887.49-1.487.752-3.107.752-4.78 0-3.55 2.201-7.176 5.483-7.176 3.247 0 5.484 3.577 5.484 7.176 0 3.768 1.32 7.261 3.62 9.586 3.99 4.03 3.603 11.511.138 15.919-.753.957-1.61 1.726-2.537 2.287ZM13.736 41.86c-2.182.533-4.39 1.581-5.836 3.28a.993.993 0 0 1-1.402.11 1 1 0 0 1-.11-1.409 10.613 10.613 0 0 1 2.317-2.013c.603-.391.384-1.33-.331-1.41l-5.872-.658a1 1 0 0 1 .22-1.985h.01-.005l.019.002h-.002l.018.002-.011-.001 5.306.594c.244-.016.986.301 1.31-.367a.772.772 0 0 0-.141-.876 10.648 10.648 0 0 1-1.818-2.475 1.003 1.003 0 0 1 .414-1.35h.001a.991.991 0 0 1 1.343.417c1.13 2.149 3.2 3.578 4.98 4.467a8.216 8.216 0 0 0-.41 3.672Z" />
</svg>