<svg width="22" height="22" viewBox="0 0 22 22" fill="none" xmlns="http://www.w3.org/2000/svg">
<g id="Group 82">
<g id="in">
<path id="Combined Shape" fill-rule="evenodd" clip-rule="evenodd" d="M6.87164 0.814453H14.8164C18.4724 0.814453 21.4371 3.77917 21.4371 7.43506V15.3799C21.4371 19.0359 18.4724 22.0006 14.8164 22.0006H6.87164C3.21571 22.0006 0.250977 19.0359 0.250977 15.3799V7.43506C0.250977 3.77917 3.21571 0.814453 6.87164 0.814453ZM14.8165 20.0142C17.372 20.0142 19.4509 17.9353 19.4509 15.3796V7.43494C19.4509 4.87927 17.372 2.80042 14.8165 2.80042H6.87166C4.31608 2.80042 2.2372 4.87927 2.2372 7.43494V15.3796C2.2372 17.9353 4.31608 20.0142 6.87166 20.0142H14.8165ZM5.43883 11.4066C5.43883 8.42188 7.85876 6.00195 10.8435 6.00195C13.8282 6.00195 16.2481 8.42188 16.2481 11.4066C16.2481 14.3912 13.8282 16.8112 10.8435 16.8112C7.85876 16.8112 5.43883 14.3912 5.43883 11.4066ZM7.46554 11.4067C7.46554 13.2686 8.98153 14.7845 10.8434 14.7845C12.7053 14.7845 14.2213 13.2686 14.2213 11.4067C14.2213 9.54346 12.7053 8.02881 10.8434 8.02881C8.98153 8.02881 7.46554 9.54346 7.46554 11.4067ZM16.4644 6.43542C16.8225 6.43542 17.1129 6.14502 17.1129 5.78687C17.1129 5.42871 16.8225 5.13831 16.4644 5.13831C16.1062 5.13831 15.8158 5.42871 15.8158 5.78687C15.8158 6.14502 16.1062 6.43542 16.4644 6.43542Z" fill="white"/>
</g>
</g>
</svg>
