<svg xmlns="http://www.w3.org/2000/svg" width="50" height="47" fill="none" viewBox="0 0 50 47">
  <path fill="#fff" d="M37.904 0a12.097 12.097 0 1 0 12.097 12.097A12.11 12.11 0 0 0 37.904 0Zm0 22.58a10.484 10.484 0 1 1 10.484-10.483A10.496 10.496 0 0 1 37.904 22.58Z"/>
  <path fill="#fff" d="M41.17 5.645a4.763 4.763 0 0 0-3.266 1.283 4.799 4.799 0 0 0-8.064 3.515 6.291 6.291 0 0 0 2.109 4.697l5.419 4.818a.806.806 0 0 0 1.073 0l5.419-4.818a6.291 6.291 0 0 0 2.109-4.697 4.804 4.804 0 0 0-4.799-4.798Zm1.618 8.29-4.884 4.34-4.884-4.34a4.67 4.67 0 0 1-1.567-3.492 3.186 3.186 0 0 1 5.438-2.252l.443.444a.806.806 0 0 0 1.14 0l.444-.444a3.185 3.185 0 0 1 5.438 2.252 4.672 4.672 0 0 1-1.568 3.492ZM.806 46.774h8.065a.806.806 0 0 0 .806-.806h16.936a4.038 4.038 0 0 0 4.018-3.697 6.264 6.264 0 0 0 1.627-4.23v-.61l.287-.288a4.499 4.499 0 0 0 1.326-3.2 4.56 4.56 0 0 0-.478-2.025l-.242-.478a8.492 8.492 0 0 0 .72-3.405v-.117A2.918 2.918 0 0 0 30.953 25h-7.874a.498.498 0 0 1-.446-.726l.701-1.401A15.862 15.862 0 0 0 25 15.82a2.918 2.918 0 0 0-2.918-2.918h-1.114a2.42 2.42 0 0 0-2.42 2.42 6.936 6.936 0 0 1-2.045 4.937l-2.274 2.274a12.23 12.23 0 0 0-2.939 4.755 2.546 2.546 0 0 1-1.638 1.62.796.796 0 0 0-.781-.683H.806a.807.807 0 0 0-.806.806v16.936a.806.806 0 0 0 .806.806Zm12.016-18.976a10.605 10.605 0 0 1 2.55-4.124l2.274-2.274a8.535 8.535 0 0 0 2.515-6.077.806.806 0 0 1 .806-.807h1.115a1.306 1.306 0 0 1 1.305 1.305 14.235 14.235 0 0 1-1.495 6.334l-.702 1.402a2.111 2.111 0 0 0 1.889 3.056h7.874a1.313 1.313 0 0 1 1.11.618 1.3 1.3 0 0 1 .195.687v.117a6.862 6.862 0 0 1-.726 3.056.807.807 0 0 0 0 .721l.414.827a2.895 2.895 0 0 1-.542 3.364l-.523.523a.807.807 0 0 0-.236.57v.945a4.667 4.667 0 0 1-1.377 3.324.807.807 0 0 0-.236.57 2.42 2.42 0 0 1-2.42 2.42H9.678V30.558a4.15 4.15 0 0 0 3.145-2.76Zm-11.21 2.04h6.452v15.323H1.613V29.839Z"/>
</svg>
