<svg width="48" height="48" viewBox="0 0 48 48" fill="none" xmlns="http://www.w3.org/2000/svg">
<path fill-rule="evenodd" clip-rule="evenodd" d="M36 16C36 15.2044 36.3161 14.4413 36.8787 13.8787C37.4413 13.3161 38.2044 13 39 13C39.7956 13 40.5587 13.3161 41.1213 13.8787C41.6839 14.4413 42 15.2044 42 16V36.303L39 40.803L36 36.303V16ZM39 15C38.7348 15 38.4804 15.1054 38.2929 15.2929C38.1054 15.4804 38 15.7348 38 16V35.697L39 37.197L40 35.697V16C40 15.7348 39.8946 15.4804 39.7071 15.2929C39.5196 15.1054 39.2652 15 39 15Z" fill="white"/>
<path fill-rule="evenodd" clip-rule="evenodd" d="M41 20H37V18H41V20ZM10 8C9.46957 8 8.96086 8.21071 8.58579 8.58579C8.21071 8.96086 8 9.46957 8 10V38C8 38.5304 8.21071 39.0391 8.58579 39.4142C8.96086 39.7893 9.46957 40 10 40H30C30.5304 40 31.0391 39.7893 31.4142 39.4142C31.7893 39.0391 32 38.5304 32 38V10C32 9.46957 31.7893 8.96086 31.4142 8.58579C31.0391 8.21071 30.5304 8 30 8H10ZM6 10C6 8.93913 6.42143 7.92172 7.17157 7.17157C7.92172 6.42143 8.93913 6 10 6H30C31.0609 6 32.0783 6.42143 32.8284 7.17157C33.5786 7.92172 34 8.93913 34 10V38C34 39.0609 33.5786 40.0783 32.8284 40.8284C32.0783 41.5786 31.0609 42 30 42H10C8.93913 42 7.92172 41.5786 7.17157 40.8284C6.42143 40.0783 6 39.0609 6 38V10Z" fill="white"/>
<path fill-rule="evenodd" clip-rule="evenodd" d="M19.9996 15C19.9996 14.7348 20.1049 14.4804 20.2925 14.2929C20.48 14.1054 20.7344 14 20.9996 14H28.9996C29.2648 14 29.5192 14.1054 29.7067 14.2929C29.8942 14.4804 29.9996 14.7348 29.9996 15C29.9996 15.2652 29.8942 15.5196 29.7067 15.7071C29.5192 15.8946 29.2648 16 28.9996 16H20.9996C20.7344 16 20.48 15.8946 20.2925 15.7071C20.1049 15.5196 19.9996 15.2652 19.9996 15ZM19.9996 19C19.9996 18.7348 20.1049 18.4804 20.2925 18.2929C20.48 18.1054 20.7344 18 20.9996 18H28.9996C29.2648 18 29.5192 18.1054 29.7067 18.2929C29.8942 18.4804 29.9996 18.7348 29.9996 19C29.9996 19.2652 29.8942 19.5196 29.7067 19.7071C29.5192 19.8946 29.2648 20 28.9996 20H20.9996C20.7344 20 20.48 19.8946 20.2925 19.7071C20.1049 19.5196 19.9996 19.2652 19.9996 19ZM19.9996 28C19.9996 27.7348 20.1049 27.4804 20.2925 27.2929C20.48 27.1054 20.7344 27 20.9996 27H28.9996C29.2648 27 29.5192 27.1054 29.7067 27.2929C29.8942 27.4804 29.9996 27.7348 29.9996 28C29.9996 28.2652 29.8942 28.5196 29.7067 28.7071C29.5192 28.8946 29.2648 29 28.9996 29H20.9996C20.7344 29 20.48 28.8946 20.2925 28.7071C20.1049 28.5196 19.9996 28.2652 19.9996 28ZM19.9996 32C19.9996 31.7348 20.1049 31.4804 20.2925 31.2929C20.48 31.1054 20.7344 31 20.9996 31H28.9996C29.2648 31 29.5192 31.1054 29.7067 31.2929C29.8942 31.4804 29.9996 31.7348 29.9996 32C29.9996 32.2652 29.8942 32.5196 29.7067 32.7071C29.5192 32.8946 29.2648 33 28.9996 33H20.9996C20.7344 33 20.48 32.8946 20.2925 32.7071C20.1049 32.5196 19.9996 32.2652 19.9996 32ZM11.9996 28V31H14.9996V28H11.9996ZM10.9996 26H15.9996C16.2648 26 16.5192 26.1054 16.7067 26.2929C16.8942 26.4804 16.9996 26.7348 16.9996 27V32C16.9996 32.2652 16.8942 32.5196 16.7067 32.7071C16.5192 32.8946 16.2648 33 15.9996 33H10.9996C10.7344 33 10.48 32.8946 10.2925 32.7071C10.105 32.5196 9.99959 32.2652 9.99959 32V27C9.99959 26.7348 10.105 26.4804 10.2925 26.2929C10.48 26.1054 10.7344 26 10.9996 26ZM17.7066 14.293C17.8941 14.4805 17.9994 14.7348 17.9994 15C17.9994 15.2652 17.8941 15.5195 17.7066 15.707L12.9996 20.414L10.2926 17.707C10.1971 17.6148 10.1209 17.5044 10.0685 17.3824C10.0161 17.2604 9.9885 17.1292 9.98734 16.9964C9.98619 16.8636 10.0115 16.7319 10.0618 16.609C10.1121 16.4862 10.1863 16.3745 10.2802 16.2806C10.3741 16.1867 10.4857 16.1125 10.6086 16.0622C10.7315 16.0119 10.8632 15.9866 10.996 15.9877C11.1288 15.9889 11.26 16.0165 11.382 16.0689C11.504 16.1213 11.6143 16.1975 11.7066 16.293L12.9996 17.586L16.2926 14.293C16.4801 14.1055 16.7344 14.0002 16.9996 14.0002C17.2648 14.0002 17.5191 14.1055 17.7066 14.293Z" fill="white"/>
</svg>
