<svg width="73" height="73" viewBox="0 0 73 73" fill="none" xmlns="http://www.w3.org/2000/svg">
<g id="Group 106">
<circle id="Ellipse 24" cx="36.5" cy="36.5" r="36.5" fill="#FFA800"/>
<path id="Vector" d="M51.4829 36.162C50.9722 36.162 50.5177 35.9782 50.1193 35.6105C49.7197 35.244 49.488 34.7895 49.4241 34.2469C49.0092 31.2785 47.7567 28.7486 45.6666 26.6573C43.5753 24.5672 41.0455 23.3147 38.077 22.8998C37.5344 22.8359 37.0799 22.6125 36.7134 22.2295C36.3457 21.8465 36.1619 21.3836 36.1619 20.841C36.1619 20.2984 36.3534 19.8432 36.7364 19.4755C37.1195 19.1091 37.5663 18.9578 38.077 19.0217C42.0988 19.4685 45.53 21.1123 48.3708 23.9531C51.2116 26.7939 52.8554 30.2251 53.3022 34.2469C53.3661 34.7576 53.2142 35.2045 52.8464 35.5875C52.48 35.9705 52.0255 36.162 51.4829 36.162ZM43.4872 36.162C43.0723 36.162 42.7052 36.0184 42.386 35.7311C42.0669 35.4438 41.8275 35.0608 41.6679 34.582C41.4125 33.6564 40.9261 32.8342 40.2085 32.1154C39.4897 31.3978 38.6675 30.9114 37.7419 30.656C37.2631 30.4964 36.8801 30.2571 36.5928 29.9379C36.3055 29.6187 36.1619 29.2357 36.1619 28.7888C36.1619 28.1504 36.3853 27.6314 36.8322 27.2318C37.279 26.8334 37.7738 26.6981 38.3164 26.8258C40.1039 27.2407 41.6443 28.0942 42.9376 29.3863C44.2297 30.6797 45.0832 32.2201 45.4981 34.0075C45.6258 34.5501 45.4822 35.0449 45.0672 35.4917C44.6523 35.9386 44.1256 36.162 43.4872 36.162ZM51.3871 53.3981C47.2696 53.3981 43.2561 52.4801 39.3467 50.6442C35.4361 48.8095 31.9729 46.3837 28.9572 43.3667C25.9402 40.351 23.5144 36.8878 21.6797 32.9772C19.8438 29.0678 18.9258 25.0543 18.9258 20.9368C18.9258 20.3622 19.1173 19.8835 19.5003 19.5004C19.8833 19.1174 20.3621 18.9259 20.9367 18.9259H28.6929C29.1398 18.9259 29.5388 19.0695 29.8899 19.3568C30.241 19.6441 30.4484 20.0111 30.5123 20.458L31.7571 27.1609C31.8209 27.6078 31.8133 28.0144 31.7341 28.3809C31.6537 28.7486 31.4698 29.0761 31.1826 29.3633L26.5863 34.0554C27.9269 36.3535 29.6026 38.508 31.6135 40.5189C33.6244 42.5298 35.8427 44.2694 38.2685 45.7376L42.7691 41.2371C43.0563 40.9498 43.4317 40.7341 43.8952 40.5898C44.3573 40.4468 44.8119 40.4072 45.2587 40.471L51.8659 41.8116C52.3128 41.9074 52.6798 42.1225 52.9671 42.457C53.2544 42.7928 53.398 43.1841 53.398 43.631V51.3872C53.398 51.9618 53.2065 52.4406 52.8235 52.8236C52.4404 53.2066 51.9617 53.3981 51.3871 53.3981Z" fill="white"/>
</g>
</svg>
