<svg width="33" height="33" viewBox="0 0 33 33" fill="none" xmlns="http://www.w3.org/2000/svg">
<path d="M29.8125 32.4836L19.3125 21.9687C18.375 22.7198 17.2969 23.3144 16.0781 23.7525C14.8594 24.1906 13.5625 24.4097 12.1875 24.4097C8.78125 24.4097 5.89875 23.2286 3.54 20.8665C1.18 18.5032 0 15.6159 0 12.2048C0 8.79374 1.18 5.90651 3.54 3.54316C5.89875 1.18105 8.78125 0 12.1875 0C15.5938 0 18.4769 1.18105 20.8369 3.54316C23.1956 5.90651 24.375 8.79374 24.375 12.2048C24.375 13.5818 24.1562 14.8805 23.7187 16.101C23.2812 17.3215 22.6875 18.4011 21.9375 19.34L32.4844 29.9018C32.8281 30.2461 33 30.6686 33 31.1693C33 31.67 32.8125 32.1081 32.4375 32.4836C32.0937 32.8279 31.6562 33 31.125 33C30.5937 33 30.1562 32.8279 29.8125 32.4836ZM12.1875 20.6543C14.5312 20.6543 16.5237 19.8332 18.165 18.1908C19.805 16.5473 20.625 14.5519 20.625 12.2048C20.625 9.85775 19.805 7.86242 18.165 6.21883C16.5237 4.5765 14.5312 3.75533 12.1875 3.75533C9.84375 3.75533 7.85125 4.5765 6.21 6.21883C4.57 7.86242 3.75 9.85775 3.75 12.2048C3.75 14.5519 4.57 16.5473 6.21 18.1908C7.85125 19.8332 9.84375 20.6543 12.1875 20.6543Z" fill="#8EC038"/>
</svg>
