<svg width="9" height="14" viewBox="0 0 9 14" fill="none" xmlns="http://www.w3.org/2000/svg">
<path id="Combined Shape" fill-rule="evenodd" clip-rule="evenodd" d="M4.15842 0.219238C6.45506 0.219238 8.31684 2.05286 8.31684 4.3147C8.31684 4.83301 8.15302 5.45862 7.82537 6.19153L7.71645 6.42651C7.58303 6.70483 7.42738 6.99768 7.24949 7.30518L7.09156 7.57227C7.06433 7.61731 7.03665 7.66272 7.00851 7.7085L6.83425 7.98621C6.8043 8.03308 6.77389 8.08032 6.74303 8.12781L6.55243 8.41626L6.35094 8.71179C6.31645 8.76172 6.28151 8.81189 6.24611 8.8623L6.02829 9.16858L5.96241 9.25977L5.91529 9.32446L5.68112 9.64136L5.43606 9.96558C5.39431 10.0201 5.35211 10.0751 5.30945 10.1302L5.04806 10.4651C4.95911 10.5779 4.86835 10.6919 4.77577 10.807C4.7399 10.8517 4.6993 10.8922 4.65468 10.9281C4.33077 11.1885 3.86461 11.1526 3.58382 10.856L3.54107 10.807L3.40357 10.6351L3.13673 10.2968C3.0496 10.1852 2.96428 10.0747 2.88078 9.96558L2.63572 9.64136L2.40156 9.32446C2.36344 9.27222 2.32577 9.22021 2.28856 9.16858L2.07073 8.8623C2.03533 8.81189 2.00039 8.76172 1.9659 8.71179L1.76441 8.41626L1.57381 8.12781C1.54295 8.08032 1.51255 8.03308 1.48259 7.98621L1.30833 7.7085C1.2802 7.66272 1.25251 7.61731 1.22528 7.57227L1.06736 7.30518C0.889466 6.99768 0.733809 6.70483 0.600389 6.42651L0.491475 6.19153C0.163825 5.45862 0 4.83301 0 4.3147C0 2.05286 1.86179 0.219238 4.15842 0.219238ZM4.15811 0.813477C2.18756 0.813477 0.59375 2.38318 0.59375 4.31482C0.59375 4.86047 0.823408 5.58154 1.28441 6.46875L1.40992 6.70386L1.54594 6.94653C1.56948 6.98767 1.59346 7.02905 1.61789 7.07068L1.76967 7.32458C1.84818 7.45337 1.93065 7.58496 2.01706 7.71924L2.19515 7.99158L2.38378 8.27112L2.43364 8.34375L2.48204 8.4137L2.68649 8.70422L2.90148 9.00195C2.93819 9.05212 2.97534 9.10266 3.01294 9.15344L3.24377 9.46191L3.48518 9.77747C3.52629 9.83069 3.56785 9.88416 3.60985 9.93799L3.86712 10.2642L4.00378 10.4349C4.07229 10.5203 4.19694 10.5338 4.28218 10.4652C4.29333 10.4563 4.30348 10.4462 4.31245 10.4349L4.57529 10.105L4.82755 9.78198L5.06921 9.46606L5.30031 9.15735L5.52083 8.85583C5.5567 8.80615 5.59213 8.75671 5.62713 8.70776L5.83181 8.41699L6.02593 8.13354C6.0574 8.08691 6.08844 8.04053 6.11903 7.99451L6.29734 7.72205L6.4651 7.45691L6.62233 7.1991C6.67298 7.1145 6.72189 7.03101 6.76903 6.94885L6.90522 6.70593C7.45074 5.70972 7.72247 4.90869 7.72247 4.31482C7.72247 2.38318 6.12867 0.813477 4.15811 0.813477ZM4.15864 2.86523C4.99378 2.86523 5.67079 3.54224 5.67079 4.37744C5.67079 5.21252 4.99378 5.88953 4.15864 5.88953C3.3235 5.88953 2.64648 5.21252 2.64648 4.37744C2.64648 3.54224 3.3235 2.86523 4.15864 2.86523ZM4.15852 3.45947C3.65147 3.45947 3.24043 3.87048 3.24043 4.37756C3.24043 4.88464 3.65147 5.29565 4.15852 5.29565C4.66557 5.29565 5.07661 4.88464 5.07661 4.37756C5.07661 3.87048 4.66557 3.45947 4.15852 3.45947ZM4.25265 12.235C4.96394 12.235 5.62474 12.0366 6.05195 11.6962C6.35729 11.4528 6.53438 11.1431 6.53438 10.8038C6.53438 10.6398 6.4014 10.5068 6.23735 10.5068C6.08698 10.5068 5.9627 10.6185 5.94303 10.7635L5.94032 10.8038C5.94032 10.9448 5.8556 11.0929 5.68165 11.2316C5.36786 11.4817 4.83743 11.6409 4.25265 11.6409C3.67342 11.6409 3.14729 11.4847 2.83205 11.2383C2.67252 11.1135 2.58558 10.9805 2.56823 10.8518L2.56498 10.8038C2.56498 10.6398 2.43199 10.5068 2.26795 10.5068C2.1039 10.5068 1.97092 10.6398 1.97092 10.8038C1.97092 11.1479 2.153 11.4613 2.46608 11.7062C2.89375 12.0406 3.54853 12.235 4.25265 12.235ZM7.27568 12.5197C6.56703 13.054 5.45512 13.3696 4.25287 13.3696C3.06263 13.3696 1.96065 13.0603 1.25084 12.5352C0.747161 12.1625 0.458984 11.6934 0.458984 11.1824C0.458984 11.0183 0.591969 10.8854 0.756015 10.8854C0.92006 10.8854 1.05304 11.0183 1.05304 11.1824C1.05304 11.4838 1.24001 11.7882 1.60416 12.0576C2.2033 12.5009 3.18197 12.7755 4.25287 12.7755C5.33418 12.7755 6.3211 12.4954 6.91802 12.0453C7.27157 11.7787 7.45269 11.4791 7.45269 11.1824C7.45269 11.0183 7.58568 10.8854 7.74972 10.8854C7.91377 10.8854 8.04675 11.0183 8.04675 11.1824C8.04675 11.6862 7.76659 12.1494 7.27568 12.5197Z" fill="white"/>
</svg>
