<svg viewBox="0 0 28 28" fill="none" xmlns="http://www.w3.org/2000/svg">
	<path fill-rule="evenodd" clip-rule="evenodd"
		d="M14.4094 8.00005C13.3165 8.00005 12.4306 8.93812 12.4306 10.0953C12.4306 11.2525 13.3165 12.1905 14.4094 12.1905C15.5023 12.1905 16.3882 11.2525 16.3882 10.0953C16.3882 8.93813 15.5023 8.00005 14.4094 8.00005ZM10.8115 10.0953C10.8115 7.99135 12.4224 6.28577 14.4094 6.28577C16.3964 6.28577 18.0073 7.99134 18.0073 10.0953C18.0073 12.1992 16.3964 13.9048 14.4094 13.9048C12.4224 13.9048 10.8115 12.1992 10.8115 10.0953Z"
		fill="white" />
	<path fill-rule="evenodd" clip-rule="evenodd"
		d="M13.0155 16.1191C11.1526 16.1191 9.64249 17.7181 9.64249 19.6905V20.4286C9.64249 20.902 9.28005 21.2857 8.83296 21.2857C8.38587 21.2857 8.02344 20.902 8.02344 20.4286V19.6905C8.02344 16.7713 10.2585 14.4048 13.0155 14.4048H15.8039C18.5609 14.4048 20.7959 16.7713 20.7959 19.6905V20.4286C20.7959 20.902 20.4335 21.2857 19.9864 21.2857C19.5393 21.2857 19.1769 20.902 19.1769 20.4286V19.6905C19.1769 17.7181 17.6667 16.1191 15.8039 16.1191H13.0155Z"
		fill="white" />
	<circle cx="14" cy="14" r="13" stroke="white" stroke-width="2" />
</svg>