<svg width="11" height="11" viewBox="0 0 11 11" fill="none" xmlns="http://www.w3.org/2000/svg">
<path id="phone" fill-rule="evenodd" clip-rule="evenodd" d="M6.40658 0.369629C6.25862 0.369629 6.13867 0.482272 6.13867 0.621222C6.13867 0.760171 6.25862 0.872814 6.40658 0.872814C8.32703 0.872814 9.88944 2.34007 9.88944 4.14357C9.88944 4.28252 10.0094 4.39516 10.1573 4.39516C10.3053 4.39516 10.4253 4.28252 10.4253 4.14357C10.4253 2.06261 8.62248 0.369629 6.40658 0.369629ZM8.43066 6.48444L10.1581 8.14199C10.5153 8.48472 10.5153 9.04239 10.1582 9.38513L9.72625 9.79953C9.01686 10.4802 7.52613 10.4366 6.53417 10.2528C5.63173 10.0856 3.89261 9.58896 2.3846 8.14197C0.873549 6.69206 0.332354 5.00968 0.144239 4.13586C-0.150927 2.7648 0.013934 1.57892 0.574494 1.04107L1.00632 0.626682C1.36347 0.283964 1.9447 0.283925 2.30191 0.626682L4.02935 2.28423C4.38656 2.62699 4.38656 3.18466 4.02935 3.52739L3.59748 3.94178C3.24027 4.28454 3.24027 4.84219 3.59748 5.18494L5.40619 6.89748C5.76479 7.24156 6.34595 7.2416 6.70321 6.89884L7.13509 6.48444C7.49316 6.14084 8.07266 6.1409 8.43066 6.48444ZM1.87039 1.04077C1.75129 0.926504 1.55759 0.926524 1.43851 1.04077L1.22363 1.24695L3.38299 3.31888L3.59785 3.11273C3.71693 2.99846 3.71693 2.81258 3.59785 2.69832L1.87039 1.04077ZM6.64984 9.6777C5.81601 9.5232 4.2092 9.06444 2.81632 7.72792C1.41777 6.38593 0.916525 4.82729 0.742215 4.01764C0.511316 2.94517 0.607451 2.139 0.831651 1.70062L2.97218 3.75454C2.57935 4.32323 2.6439 5.09917 3.16693 5.60102L4.97564 7.31355C5.49716 7.81397 6.30536 7.87628 6.89854 7.49906L9.0408 9.55464C8.38799 9.87229 7.37278 9.81164 6.64984 9.6777ZM9.51186 9.17701L9.72673 8.97084C9.84578 8.85661 9.84578 8.67071 9.72671 8.55649L7.99926 6.89894C7.87989 6.78442 7.68672 6.78442 7.56739 6.89894L7.35254 7.1051L9.51186 9.17701ZM6.13867 1.92084C6.13867 1.79574 6.2481 1.69434 6.38308 1.69434C7.86554 1.69434 9.07161 2.81203 9.07161 4.18586C9.07161 4.31095 8.96219 4.41236 8.8272 4.41236C8.69222 4.41236 8.5828 4.31095 8.5828 4.18586C8.5828 3.06182 7.596 2.14733 6.38308 2.14733C6.2481 2.14733 6.13867 2.04593 6.13867 1.92084ZM6.33608 3.01862C6.22706 3.01862 6.13867 3.09842 6.13867 3.19686C6.13867 3.2953 6.22706 3.37511 6.33608 3.37511C6.88036 3.37511 7.32315 3.77491 7.32315 4.26635C7.32315 4.36479 7.41154 4.4446 7.52056 4.4446C7.62959 4.4446 7.71797 4.36479 7.71797 4.26635C7.71799 3.57835 7.09806 3.01862 6.33608 3.01862ZM6.13867 4.39013C6.13867 4.36401 6.16393 4.34283 6.19509 4.34283C6.28841 4.34283 6.36434 4.40648 6.36434 4.48472C6.36434 4.51084 6.33908 4.53201 6.30792 4.53201C6.27676 4.53201 6.2515 4.51084 6.2515 4.48472C6.2515 4.45864 6.2262 4.43742 6.19509 4.43742C6.16393 4.43742 6.13867 4.41625 6.13867 4.39013Z" fill="white"/>
</svg>
