<svg  viewBox="0 0 20 18"  xmlns="http://www.w3.org/2000/svg">
<path id="Vector" d="M19.4909 0.350305C19.2859 0.177691 19.0377 0.0634984 18.7727 0.0198648C18.5077 -0.0237689 18.2357 0.00478703 17.9857 0.102497L0.93955 6.75659C0.640563 6.86981 0.38731 7.07758 0.218787 7.3479C0.0502646 7.61823 -0.0241838 7.93611 0.00690595 8.25262C0.034643 8.569 0.164823 8.86792 0.377925 9.10455C0.591026 9.34118 0.875564 9.50277 1.18887 9.56508L5.51966 10.4186V15.797C5.51951 16.0879 5.60632 16.3724 5.76908 16.6142C5.93184 16.8561 6.16321 17.0444 6.43384 17.1553C6.61294 17.227 6.80405 17.2644 6.99712 17.2655C7.19117 17.2662 7.3834 17.2284 7.56257 17.1543C7.74174 17.0802 7.90425 16.9714 8.04057 16.8341L10.4414 14.457L14.0704 17.6326C14.3383 17.8675 14.6828 17.9979 15.04 17.9997C15.1971 18.0029 15.3535 17.9781 15.5017 17.9263C15.7454 17.8497 15.9647 17.7111 16.138 17.5244C16.3113 17.3377 16.4326 17.1092 16.4898 16.8616L19.9618 1.79126C20.0225 1.53122 20.0107 1.25965 19.9277 1.00576C19.8447 0.751867 19.6937 0.525261 19.4909 0.350305ZM6.08294 9.03275L1.48436 8.12413L14.3752 3.08537L6.08294 9.03275ZM6.99712 15.797V11.4466L9.32411 13.4841L6.99712 15.797ZM15.0493 16.5312L7.44035 9.87714L18.4012 2.01153L15.0493 16.5312Z" fill="white"/>
</svg>
